<?xml version="1.0" standalone="yes"?>

<svg version="1.1" viewBox="0.0 0.0 960.0 720.0" fill="none" stroke="none" stroke-linecap="square" stroke-miterlimit="10" xmlns="http://www.w3.org/2000/svg" xmlns:xlink="http://www.w3.org/1999/xlink"><clipPath id="p.0"><path d="m0 0l960.0 0l0 720.0l-960.0 0l0 -720.0z" clip-rule="nonzero"></path></clipPath><g clip-path="url(#p.0)"><defs><radialGradient id="p.1" gradientUnits="userSpaceOnUse" gradientTransform="matrix(24.49489742783178 0.0 0.0 24.49489742783178 0.0 0.0)" spreadMethod="pad" cx="19.595917942265427" cy="14.696938456699069" fx="19.595917942265427" fy="14.696938456699069" r="24.494897842407227"><stop offset="0.0" stop-color="#592d50"></stop><stop offset="1.0" stop-color="#30182b"></stop></radialGradient></defs><path fill="url(#p.1)" d="m0 0l960.0 0l0 720.0l-960.0 0z" fill-rule="nonzero"></path><path fill="#ffffff" d="m0 720.0l960.00006 0l0 -302.17322l-960.00006 0z" fill-rule="nonzero"></path><path fill="#ffffff" fill-opacity="0.06666667" d="m0.12587926 417.95364l484.63766 0l-484.76355 -82.95102c0.04199475 27.6503 0.083884515 55.30069 0.12587926 82.95102z" fill-rule="nonzero"></path><path fill="#000000" fill-opacity="0.078431375" d="m0.12587926 417.89597l484.63766 0l-484.76355 79.74939c0.04199475 -26.58313 0.083884515 -53.16629 0.12587926 -79.74939z" fill-rule="nonzero"></path><path fill="#000000" fill-opacity="0.0" d="m72.0 244.5344l816.0 0l0 173.29132l-816.0 0z" fill-rule="nonzero"></path><path fill="#ffffff" d="m145.01562 316.26572l-19.59375 0l0 -2.21875q1.0625 -0.03125 2.734375 -0.21875q1.671875 -0.1875 2.296875 -0.53125q0.96875 -0.59375 1.421875 -1.359375q0.453125 -0.765625 0.453125 -1.921875l0 -32.25l-0.46875 0l-15.125 37.78125l-1.5625 0l-14.40625 -38.5625l-0.40625 0l0 26.46875q0 3.84375 0.484375 5.84375q0.484375 2.0 1.484375 2.875q0.6875 0.65625 2.84375 1.25q2.15625 0.59375 2.8125 0.625l0 2.21875l-17.90625 0l0 -2.21875q1.40625 -0.125 2.953125 -0.46875q1.546875 -0.34375 2.390625 -1.03125q1.09375 -0.875 1.5 -2.6875q0.40625 -1.8125 0.40625 -6.0625l0 -22.6875q0 -1.96875 -0.46875 -3.21875q-0.46875 -1.25 -1.34375 -2.03125q-0.96875 -0.84375 -2.375 -1.25q-1.40625 -0.40625 -2.78125 -0.46875l0 -2.21875l15.125 0l12.6875 33.25l10.84375 -27.8125q0.59375 -1.53125 1.015625 -3.203125q0.421875 -1.671875 0.453125 -2.234375l14.46875 0l0 2.21875q-0.875 0.03125 -2.234375 0.28125q-1.359375 0.25 -1.984375 0.46875q-1.0625 0.375 -1.4375 1.25q-0.375 0.875 -0.375 1.90625l0 31.96875q0 1.09375 0.375 1.84375q0.375 0.75 1.4375 1.3125q0.5625 0.3125 2.0 0.578125q1.4375 0.265625 2.28125 0.296875l0 2.21875zm35.1875 -15.71875q0 3.25 -1.03125 6.390625q-1.03125 3.140625 -2.9375 5.328125q-2.15625 2.5 -5.0 3.71875q-2.84375 1.21875 -6.375 1.21875q-2.9375 0 -5.59375 -1.109375q-2.65625 -1.109375 -4.71875 -3.234375q-2.03125 -2.09375 -3.234375 -5.109375q-1.203125 -3.015625 -1.203125 -6.765625q0 -7.21875 4.203125 -11.8125q4.203125 -4.59375 11.015625 -4.59375q6.46875 0 10.671875 4.359375q4.203125 4.359375 4.203125 11.609375zm-6.46875 0.0625q0 -2.34375 -0.46875 -4.953125q-0.46875 -2.609375 -1.40625 -4.421875q-1.0 -1.9375 -2.625 -3.109375q-1.625 -1.171875 -3.96875 -1.171875q-2.40625 0 -4.109375 1.1875q-1.703125 1.1875 -2.765625 3.25q-1.0 1.90625 -1.40625 4.34375q-0.40625 2.4375 -0.40625 4.71875q0 3.0 0.484375 5.546875q0.484375 2.546875 1.546875 4.546875q1.0625 2.0 2.671875 3.140625q1.609375 1.140625 3.984375 1.140625q3.90625 0 6.1875 -3.78125q2.28125 -3.78125 2.28125 -10.4375zm44.96875 15.65625l-15.09375 0l0 -2.0625q0.71875 -0.0625 1.578125 -0.125q0.859375 -0.0625 1.421875 -0.25q0.875 -0.28125 1.296875 -0.984375q0.421875 -0.703125 0.421875 -1.828125l0 -15.84375q0 -3.28125 -1.546875 -5.0625q-1.546875 -1.78125 -3.765625 -1.78125q-1.65625 0 -3.03125 0.515625q-1.375 0.515625 -2.4375 1.265625q-1.03125 0.71875 -1.640625 1.546875q-0.609375 0.828125 -0.890625 1.328125l0 17.71875q0 1.0625 0.4375 1.75q0.4375 0.6875 1.3125 1.0625q0.65625 0.3125 1.421875 0.46875q0.765625 0.15625 1.578125 0.21875l0 2.0625l-15.09375 0l0 -2.0625q0.71875 -0.0625 1.484375 -0.125q0.765625 -0.0625 1.328125 -0.25q0.875 -0.28125 1.296875 -0.984375q0.421875 -0.703125 0.421875 -1.828125l0 -19.03125q0 -1.0625 -0.453125 -1.953125q-0.453125 -0.890625 -1.265625 -1.453125q-0.59375 -0.375 -1.40625 -0.546875q-0.8125 -0.171875 -1.75 -0.234375l0 -2.03125l10.25 -0.6875l0.4375 0.4375l0 4.34375l0.15625 0q0.75 -0.75 1.875 -1.796875q1.125 -1.046875 2.125 -1.703125q1.15625 -0.75 2.75 -1.25q1.59375 -0.5 3.59375 -0.5q4.4375 0 6.578125 2.765625q2.140625 2.765625 2.140625 7.359375l0 16.03125q0 1.09375 0.375 1.765625q0.375 0.671875 1.28125 1.046875q0.75 0.3125 1.296875 0.4375q0.546875 0.125 1.515625 0.1875l0 2.0625zm18.75 0l-14.90625 0l0 -2.0625q0.71875 -0.0625 1.484375 -0.125q0.765625 -0.0625 1.328125 -0.25q0.875 -0.28125 1.296875 -0.984375q0.421875 -0.703125 0.421875 -1.828125l0 -19.03125q0 -1.0 -0.453125 -1.828125q-0.453125 -0.828125 -1.265625 -1.390625q-0.59375 -0.375 -1.71875 -0.640625q-1.125 -0.265625 -2.0625 -0.328125l0 -2.03125l10.875 -0.6875l0.4375 0.4375l0 25.125q0 1.09375 0.421875 1.8125q0.421875 0.71875 1.328125 1.0625q0.6875 0.28125 1.34375 0.453125q0.65625 0.171875 1.46875 0.234375l0 2.0625zm-3.9375 -43.34375q0 1.78125 -1.171875 3.109375q-1.171875 1.328125 -2.890625 1.328125q-1.59375 0 -2.765625 -1.265625q-1.171875 -1.265625 -1.171875 -2.890625q0 -1.71875 1.171875 -3.0q1.171875 -1.28125 2.765625 -1.28125q1.78125 0 2.921875 1.203125q1.140625 1.203125 1.140625 2.796875zm26.75 42.0q-2.03125 0.84375 -3.84375 1.421875q-1.8125 0.578125 -4.4375 0.578125q-3.875 0 -5.453125 -1.953125q-1.578125 -1.953125 -1.578125 -5.515625l0 -20.875l-5.5625 0l0 -3.0l5.6875 0l0 -9.59375l5.6875 0l0 9.59375l8.84375 0l0 3.0l-8.78125 0l0 17.21875q0 1.9375 0.140625 3.234375q0.140625 1.296875 0.671875 2.265625q0.5 0.90625 1.5 1.375q1.0 0.46875 2.6875 0.46875q0.78125 0 2.296875 -0.140625q1.515625 -0.140625 2.140625 -0.359375l0 2.28125zm33.09375 -14.375q0 3.25 -1.03125 6.390625q-1.03125 3.140625 -2.9375 5.328125q-2.15625 2.5 -5.0 3.71875q-2.84375 1.21875 -6.375 1.21875q-2.9375 0 -5.59375 -1.109375q-2.65625 -1.109375 -4.71875 -3.234375q-2.03125 -2.09375 -3.234375 -5.109375q-1.203125 -3.015625 -1.203125 -6.765625q0 -7.21875 4.203125 -11.8125q4.203125 -4.59375 11.015625 -4.59375q6.46875 0 10.671875 4.359375q4.203125 4.359375 4.203125 11.609375zm-6.46875 0.0625q0 -2.34375 -0.46875 -4.953125q-0.46875 -2.609375 -1.40625 -4.421875q-1.0 -1.9375 -2.625 -3.109375q-1.625 -1.171875 -3.96875 -1.171875q-2.40625 0 -4.109375 1.1875q-1.703125 1.1875 -2.765625 3.25q-1.0 1.90625 -1.40625 4.34375q-0.40625 2.4375 -0.40625 4.71875q0 3.0 0.484375 5.546875q0.484375 2.546875 1.546875 4.546875q1.0625 2.0 2.671875 3.140625q1.609375 1.140625 3.984375 1.140625q3.90625 0 6.1875 -3.78125q2.28125 -3.78125 2.28125 -10.4375zm34.53125 -11.1875q0 1.59375 -0.78125 2.828125q-0.78125 1.234375 -2.40625 1.234375q-1.75 0 -2.671875 -0.90625q-0.921875 -0.90625 -0.921875 -2.0q0 -0.6875 0.109375 -1.25q0.109375 -0.5625 0.203125 -1.125q-1.46875 0 -3.4375 1.1875q-1.96875 1.1875 -3.34375 3.375l0 17.9375q0 1.09375 0.421875 1.78125q0.421875 0.6875 1.328125 1.03125q0.78125 0.3125 2.015625 0.46875q1.234375 0.15625 2.140625 0.21875l0 2.0625l-16.25 0l0 -2.0625q0.71875 -0.0625 1.484375 -0.125q0.765625 -0.0625 1.328125 -0.25q0.875 -0.28125 1.296875 -0.984375q0.421875 -0.703125 0.421875 -1.828125l0 -19.03125q0 -0.96875 -0.453125 -1.90625q-0.453125 -0.9375 -1.265625 -1.5q-0.59375 -0.375 -1.40625 -0.546875q-0.8125 -0.171875 -1.75 -0.234375l0 -2.03125l10.25 -0.6875l0.4375 0.4375l0 4.34375l0.15625 0q1.9375 -2.53125 4.3125 -3.84375q2.375 -1.3125 4.34375 -1.3125q1.96875 0 3.203125 1.28125q1.234375 1.28125 1.234375 3.4375zm17.59375 26.84375l-14.90625 0l0 -2.0625q0.71875 -0.0625 1.484375 -0.125q0.765625 -0.0625 1.328125 -0.25q0.875 -0.28125 1.296875 -0.984375q0.421875 -0.703125 0.421875 -1.828125l0 -19.03125q0 -1.0 -0.453125 -1.828125q-0.453125 -0.828125 -1.265625 -1.390625q-0.59375 -0.375 -1.71875 -0.640625q-1.125 -0.265625 -2.0625 -0.328125l0 -2.03125l10.875 -0.6875l0.4375 0.4375l0 25.125q0 1.09375 0.421875 1.8125q0.421875 0.71875 1.328125 1.0625q0.6875 0.28125 1.34375 0.453125q0.65625 0.171875 1.46875 0.234375l0 2.0625zm-3.9375 -43.34375q0 1.78125 -1.171875 3.109375q-1.171875 1.328125 -2.890625 1.328125q-1.59375 0 -2.765625 -1.265625q-1.171875 -1.265625 -1.171875 -2.890625q0 -1.71875 1.171875 -3.0q1.171875 -1.28125 2.765625 -1.28125q1.78125 0 2.921875 1.203125q1.140625 1.203125 1.140625 2.796875zm32.125 43.34375l-24.9375 0l0 -1.65625l17.4375 -26.625l-4.3125 0q-2.71875 0 -4.25 0.09375q-1.53125 0.09375 -2.8125 0.625q-0.875 0.34375 -1.640625 1.96875q-0.765625 1.625 -1.328125 4.25l-1.90625 0l0 -9.46875l23.5625 0l0 1.28125l-17.71875 27.0q1.125 0.03125 2.46875 0.046875q1.34375 0.015625 2.90625 0.015625q1.25 0 2.609375 -0.03125q1.359375 -0.03125 3.484375 -0.15625q1.25 -0.0625 1.890625 -0.84375q0.640625 -0.78125 0.984375 -1.78125q0.34375 -0.90625 0.828125 -2.5q0.484375 -1.59375 0.859375 -3.09375l1.875 0l0 10.875zm33.1875 -0.5625q-1.46875 0.53125 -2.578125 0.859375q-1.109375 0.328125 -2.515625 0.328125q-2.4375 0 -3.890625 -1.140625q-1.453125 -1.140625 -1.859375 -3.328125l-0.1875 0q-2.03125 2.25 -4.359375 3.4375q-2.328125 1.1875 -5.609375 1.1875q-3.46875 0 -5.703125 -2.125q-2.234375 -2.125 -2.234375 -5.5625q0 -1.78125 0.5 -3.1875q0.5 -1.40625 1.5 -2.53125q0.78125 -0.9375 2.0625 -1.671875q1.28125 -0.734375 2.40625 -1.171875q1.40625 -0.53125 5.703125 -1.96875q4.296875 -1.4375 5.796875 -2.25l0 -3.09375q0 -0.40625 -0.171875 -1.5625q-0.171875 -1.15625 -0.734375 -2.1875q-0.625 -1.15625 -1.765625 -2.015625q-1.140625 -0.859375 -3.234375 -0.859375q-1.4375 0 -2.671875 0.484375q-1.234375 0.484375 -1.734375 1.015625q0 0.625 0.296875 1.84375q0.296875 1.21875 0.296875 2.25q0 1.09375 -0.984375 2.0q-0.984375 0.90625 -2.734375 0.90625q-1.5625 0 -2.296875 -1.109375q-0.734375 -1.109375 -0.734375 -2.484375q0 -1.4375 1.015625 -2.75q1.015625 -1.3125 2.640625 -2.34375q1.40625 -0.875 3.40625 -1.484375q2.0 -0.609375 3.90625 -0.609375q2.625 0 4.578125 0.359375q1.953125 0.359375 3.546875 1.546875q1.59375 1.15625 2.421875 3.140625q0.828125 1.984375 0.828125 5.109375q0 4.46875 -0.09375 7.921875q-0.09375 3.453125 -0.09375 7.546875q0 1.21875 0.421875 1.9375q0.421875 0.71875 1.296875 1.21875q0.46875 0.28125 1.484375 0.3125q1.015625 0.03125 2.078125 0.03125l0 2.0zm-10.90625 -16.5q-2.65625 0.78125 -4.65625 1.53125q-2.0 0.75 -3.71875 1.875q-1.5625 1.0625 -2.46875 2.515625q-0.90625 1.453125 -0.90625 3.453125q0 2.59375 1.359375 3.8125q1.359375 1.21875 3.453125 1.21875q2.21875 0 3.90625 -1.078125q1.6875 -1.078125 2.84375 -2.546875l0.1875 -10.78125zm28.21875 17.875q-6.6875 0 -10.46875 -4.4375q-3.78125 -4.4375 -3.78125 -11.90625q0 -3.25 1.015625 -6.078125q1.015625 -2.828125 2.953125 -5.140625q1.84375 -2.21875 4.625 -3.578125q2.78125 -1.359375 6.0625 -1.359375q4.53125 0 7.375 2.171875q2.84375 2.171875 2.84375 5.921875q0 1.5625 -0.75 2.765625q-0.75 1.203125 -2.46875 1.203125q-1.84375 0 -2.859375 -0.9375q-1.015625 -0.9375 -1.015625 -2.09375q0 -1.40625 0.375 -2.890625q0.375 -1.484375 0.4375 -2.171875q-0.5625 -0.96875 -1.671875 -1.296875q-1.109375 -0.328125 -2.390625 -0.328125q-1.5 0 -2.859375 0.640625q-1.359375 0.640625 -2.640625 2.359375q-1.15625 1.5625 -1.875 4.21875q-0.71875 2.65625 -0.71875 6.34375q0 5.8125 2.578125 9.484375q2.578125 3.671875 6.765625 3.671875q3.03125 0 5.078125 -1.46875q2.046875 -1.46875 3.796875 -4.40625l2.0 1.3125q-2.0625 3.6875 -5.4375 5.84375q-3.375 2.15625 -6.96875 2.15625zm29.78125 -0.8125l-14.90625 0l0 -2.0625q0.71875 -0.0625 1.484375 -0.125q0.765625 -0.0625 1.328125 -0.25q0.875 -0.28125 1.296875 -0.984375q0.421875 -0.703125 0.421875 -1.828125l0 -19.03125q0 -1.0 -0.453125 -1.828125q-0.453125 -0.828125 -1.265625 -1.390625q-0.59375 -0.375 -1.71875 -0.640625q-1.125 -0.265625 -2.0625 -0.328125l0 -2.03125l10.875 -0.6875l0.4375 0.4375l0 25.125q0 1.09375 0.421875 1.8125q0.421875 0.71875 1.328125 1.0625q0.6875 0.28125 1.34375 0.453125q0.65625 0.171875 1.46875 0.234375l0 2.0625zm-3.9375 -43.34375q0 1.78125 -1.171875 3.109375q-1.171875 1.328125 -2.890625 1.328125q-1.59375 0 -2.765625 -1.265625q-1.171875 -1.265625 -1.171875 -2.890625q0 -1.71875 1.171875 -3.0q1.171875 -1.28125 2.765625 -1.28125q1.78125 0 2.921875 1.203125q1.140625 1.203125 1.140625 2.796875zm37.75 27.625q0 3.25 -1.03125 6.390625q-1.03125 3.140625 -2.9375 5.328125q-2.15625 2.5 -5.0 3.71875q-2.84375 1.21875 -6.375 1.21875q-2.9375 0 -5.59375 -1.109375q-2.65625 -1.109375 -4.71875 -3.234375q-2.03125 -2.09375 -3.234375 -5.109375q-1.203125 -3.015625 -1.203125 -6.765625q0 -7.21875 4.203125 -11.8125q4.203125 -4.59375 11.015625 -4.59375q6.46875 0 10.671875 4.359375q4.203125 4.359375 4.203125 11.609375zm-6.46875 0.0625q0 -2.34375 -0.46875 -4.953125q-0.46875 -2.609375 -1.40625 -4.421875q-1.0 -1.9375 -2.625 -3.109375q-1.625 -1.171875 -3.96875 -1.171875q-2.40625 0 -4.109375 1.1875q-1.703125 1.1875 -2.765625 3.25q-1.0 1.90625 -1.40625 4.34375q-0.40625 2.4375 -0.40625 4.71875q0 3.0 0.484375 5.546875q0.484375 2.546875 1.546875 4.546875q1.0625 2.0 2.671875 3.140625q1.609375 1.140625 3.984375 1.140625q3.90625 0 6.1875 -3.78125q2.28125 -3.78125 2.28125 -10.4375zm-3.0625 -29.96875q0 1.1875 -0.546875 1.9375q-0.546875 0.75 -1.609375 1.59375q-1.5625 1.25 -4.078125 3.1875q-2.515625 1.9375 -5.421875 4.21875l-1.1875 -1.0q2.8125 -4.15625 3.921875 -5.859375q1.109375 -1.703125 2.390625 -3.765625q0.96875 -1.59375 1.875 -2.171875q0.90625 -0.578125 2.09375 -0.578125q1.125 0 1.84375 0.765625q0.71875 0.765625 0.71875 1.671875zm48.03125 45.625l-15.09375 0l0 -2.0625q0.71875 -0.0625 1.578125 -0.125q0.859375 -0.0625 1.421875 -0.25q0.875 -0.28125 1.296875 -0.984375q0.421875 -0.703125 0.421875 -1.828125l0 -15.84375q0 -3.28125 -1.546875 -5.0625q-1.546875 -1.78125 -3.765625 -1.78125q-1.65625 0 -3.03125 0.515625q-1.375 0.515625 -2.4375 1.265625q-1.03125 0.71875 -1.640625 1.546875q-0.609375 0.828125 -0.890625 1.328125l0 17.71875q0 1.0625 0.4375 1.75q0.4375 0.6875 1.3125 1.0625q0.65625 0.3125 1.421875 0.46875q0.765625 0.15625 1.578125 0.21875l0 2.0625l-15.09375 0l0 -2.0625q0.71875 -0.0625 1.484375 -0.125q0.765625 -0.0625 1.328125 -0.25q0.875 -0.28125 1.296875 -0.984375q0.421875 -0.703125 0.421875 -1.828125l0 -19.03125q0 -1.0625 -0.453125 -1.953125q-0.453125 -0.890625 -1.265625 -1.453125q-0.59375 -0.375 -1.40625 -0.546875q-0.8125 -0.171875 -1.75 -0.234375l0 -2.03125l10.25 -0.6875l0.4375 0.4375l0 4.34375l0.15625 0q0.75 -0.75 1.875 -1.796875q1.125 -1.046875 2.125 -1.703125q1.15625 -0.75 2.75 -1.25q1.59375 -0.5 3.59375 -0.5q4.4375 0 6.578125 2.765625q2.140625 2.765625 2.140625 7.359375l0 16.03125q0 1.09375 0.375 1.765625q0.375 0.671875 1.28125 1.046875q0.75 0.3125 1.296875 0.4375q0.546875 0.125 1.515625 0.1875l0 2.0625zm52.96875 -0.5625l-10.75 0.6875l-0.46875 -0.4375l0 -2.875l-0.25 -0.0625q-1.625 1.8125 -4.015625 2.96875q-2.390625 1.15625 -4.921875 1.15625q-2.625 0 -5.078125 -1.171875q-2.453125 -1.171875 -4.265625 -3.296875q-1.84375 -2.15625 -2.921875 -5.1875q-1.078125 -3.03125 -1.078125 -6.6875q0 -3.34375 1.15625 -6.34375q1.15625 -3.0 3.1875 -5.25q1.90625 -2.09375 4.671875 -3.34375q2.765625 -1.25 5.640625 -1.25q2.15625 0 4.234375 0.546875q2.078125 0.546875 3.578125 1.390625l0 -10.71875q0 -1.3125 -0.4375 -2.390625q-0.4375 -1.078125 -1.21875 -1.640625q-0.875 -0.59375 -2.359375 -0.859375q-1.484375 -0.265625 -3.203125 -0.390625l0 -1.9375l12.59375 -0.71875l0.46875 0.46875l0 41.5625q0 1.09375 0.421875 1.859375q0.421875 0.765625 1.234375 1.296875q0.59375 0.375 1.71875 0.46875q1.125 0.09375 2.0625 0.125l0 2.03125zm-11.28125 -5.40625l0 -18.03125q-0.25 -0.8125 -0.8125 -1.75q-0.5625 -0.9375 -1.40625 -1.71875q-0.90625 -0.78125 -2.125 -1.296875q-1.21875 -0.515625 -2.84375 -0.515625q-1.875 0 -3.453125 0.96875q-1.578125 0.96875 -2.796875 2.78125q-1.15625 1.75 -1.828125 4.453125q-0.671875 2.703125 -0.671875 5.984375q0 2.625 0.5 4.765625q0.5 2.140625 1.6875 3.984375q1.09375 1.75 2.796875 2.8125q1.703125 1.0625 4.046875 1.0625q2.5 0 4.140625 -1.09375q1.640625 -1.09375 2.765625 -2.40625zm41.65625 -1.28125q-1.9375 3.6875 -5.1875 5.875q-3.25 2.1875 -7.46875 2.1875q-3.71875 0 -6.515625 -1.3125q-2.796875 -1.3125 -4.609375 -3.5625q-1.8125 -2.25 -2.703125 -5.25q-0.890625 -3.0 -0.890625 -6.34375q0 -3.0 0.953125 -5.890625q0.953125 -2.890625 2.796875 -5.203125q1.78125 -2.21875 4.421875 -3.578125q2.640625 -1.359375 5.921875 -1.359375q3.375 0 5.78125 1.0625q2.40625 1.0625 3.90625 2.90625q1.4375 1.75 2.140625 4.125q0.703125 2.375 0.703125 5.15625l0 2.0625l-20.40625 0q0 3.03125 0.578125 5.5q0.578125 2.46875 1.828125 4.34375q1.21875 1.8125 3.1875 2.859375q1.96875 1.046875 4.6875 1.046875q2.78125 0 4.796875 -1.296875q2.015625 -1.296875 3.890625 -4.671875l2.1875 1.34375zm-6.90625 -11.75q0 -1.75 -0.296875 -3.75q-0.296875 -2.0 -0.953125 -3.34375q-0.71875 -1.4375 -1.96875 -2.34375q-1.25 -0.90625 -3.21875 -0.90625q-3.28125 0 -5.453125 2.734375q-2.171875 2.734375 -2.359375 7.609375l14.25 0zm53.28125 11.75q-1.9375 3.6875 -5.1875 5.875q-3.25 2.1875 -7.46875 2.1875q-3.71875 0 -6.515625 -1.3125q-2.796875 -1.3125 -4.609375 -3.5625q-1.8125 -2.25 -2.703125 -5.25q-0.890625 -3.0 -0.890625 -6.34375q0 -3.0 0.953125 -5.890625q0.953125 -2.890625 2.796875 -5.203125q1.78125 -2.21875 4.421875 -3.578125q2.640625 -1.359375 5.921875 -1.359375q3.375 0 5.78125 1.0625q2.40625 1.0625 3.90625 2.90625q1.4375 1.75 2.140625 4.125q0.703125 2.375 0.703125 5.15625l0 2.0625l-20.40625 0q0 3.03125 0.578125 5.5q0.578125 2.46875 1.828125 4.34375q1.21875 1.8125 3.1875 2.859375q1.96875 1.046875 4.6875 1.046875q2.78125 0 4.796875 -1.296875q2.015625 -1.296875 3.890625 -4.671875l2.1875 1.34375zm-6.90625 -11.75q0 -1.75 -0.296875 -3.75q-0.296875 -2.0 -0.953125 -3.34375q-0.71875 -1.4375 -1.96875 -2.34375q-1.25 -0.90625 -3.21875 -0.90625q-3.28125 0 -5.453125 2.734375q-2.171875 2.734375 -2.359375 7.609375l14.25 0zm44.5 19.0l-15.09375 0l0 -2.0625q0.71875 -0.0625 1.578125 -0.125q0.859375 -0.0625 1.421875 -0.25q0.875 -0.28125 1.296875 -0.984375q0.421875 -0.703125 0.421875 -1.828125l0 -15.84375q0 -3.28125 -1.546875 -5.0625q-1.546875 -1.78125 -3.765625 -1.78125q-1.65625 0 -3.03125 0.515625q-1.375 0.515625 -2.4375 1.265625q-1.03125 0.71875 -1.640625 1.546875q-0.609375 0.828125 -0.890625 1.328125l0 17.71875q0 1.0625 0.4375 1.75q0.4375 0.6875 1.3125 1.0625q0.65625 0.3125 1.421875 0.46875q0.765625 0.15625 1.578125 0.21875l0 2.0625l-15.09375 0l0 -2.0625q0.71875 -0.0625 1.484375 -0.125q0.765625 -0.0625 1.328125 -0.25q0.875 -0.28125 1.296875 -0.984375q0.421875 -0.703125 0.421875 -1.828125l0 -19.03125q0 -1.0625 -0.453125 -1.953125q-0.453125 -0.890625 -1.265625 -1.453125q-0.59375 -0.375 -1.40625 -0.546875q-0.8125 -0.171875 -1.75 -0.234375l0 -2.03125l10.25 -0.6875l0.4375 0.4375l0 4.34375l0.15625 0q0.75 -0.75 1.875 -1.796875q1.125 -1.046875 2.125 -1.703125q1.15625 -0.75 2.75 -1.25q1.59375 -0.5 3.59375 -0.5q4.4375 0 6.578125 2.765625q2.140625 2.765625 2.140625 7.359375l0 16.03125q0 1.09375 0.375 1.765625q0.375 0.671875 1.28125 1.046875q0.75 0.3125 1.296875 0.4375q0.546875 0.125 1.515625 0.1875l0 2.0625zm22.8125 -1.34375q-2.03125 0.84375 -3.84375 1.421875q-1.8125 0.578125 -4.4375 0.578125q-3.875 0 -5.453125 -1.953125q-1.578125 -1.953125 -1.578125 -5.515625l0 -20.875l-5.5625 0l0 -3.0l5.6875 0l0 -9.59375l5.6875 0l0 9.59375l8.84375 0l0 3.0l-8.78125 0l0 17.21875q0 1.9375 0.140625 3.234375q0.140625 1.296875 0.671875 2.265625q0.5 0.90625 1.5 1.375q1.0 0.46875 2.6875 0.46875q0.78125 0 2.296875 -0.140625q1.515625 -0.140625 2.140625 -0.359375l0 2.28125zm33.09375 -14.375q0 3.25 -1.03125 6.390625q-1.03125 3.140625 -2.9375 5.328125q-2.15625 2.5 -5.0 3.71875q-2.84375 1.21875 -6.375 1.21875q-2.9375 0 -5.59375 -1.109375q-2.65625 -1.109375 -4.71875 -3.234375q-2.03125 -2.09375 -3.234375 -5.109375q-1.203125 -3.015625 -1.203125 -6.765625q0 -7.21875 4.203125 -11.8125q4.203125 -4.59375 11.015625 -4.59375q6.46875 0 10.671875 4.359375q4.203125 4.359375 4.203125 11.609375zm-6.46875 0.0625q0 -2.34375 -0.46875 -4.953125q-0.46875 -2.609375 -1.40625 -4.421875q-1.0 -1.9375 -2.625 -3.109375q-1.625 -1.171875 -3.96875 -1.171875q-2.40625 0 -4.109375 1.1875q-1.703125 1.1875 -2.765625 3.25q-1.0 1.90625 -1.40625 4.34375q-0.40625 2.4375 -0.40625 4.71875q0 3.0 0.484375 5.546875q0.484375 2.546875 1.546875 4.546875q1.0625 2.0 2.671875 3.140625q1.609375 1.140625 3.984375 1.140625q3.90625 0 6.1875 -3.78125q2.28125 -3.78125 2.28125 -10.4375zm34.53125 -11.1875q0 1.59375 -0.78125 2.828125q-0.78125 1.234375 -2.40625 1.234375q-1.75 0 -2.671875 -0.90625q-0.921875 -0.90625 -0.921875 -2.0q0 -0.6875 0.109375 -1.25q0.109375 -0.5625 0.203125 -1.125q-1.46875 0 -3.4375 1.1875q-1.96875 1.1875 -3.34375 3.375l0 17.9375q0 1.09375 0.421875 1.78125q0.421875 0.6875 1.328125 1.03125q0.78125 0.3125 2.015625 0.46875q1.234375 0.15625 2.140625 0.21875l0 2.0625l-16.25 0l0 -2.0625q0.71875 -0.0625 1.484375 -0.125q0.765625 -0.0625 1.328125 -0.25q0.875 -0.28125 1.296875 -0.984375q0.421875 -0.703125 0.421875 -1.828125l0 -19.03125q0 -0.96875 -0.453125 -1.90625q-0.453125 -0.9375 -1.265625 -1.5q-0.59375 -0.375 -1.40625 -0.546875q-0.8125 -0.171875 -1.75 -0.234375l0 -2.03125l10.25 -0.6875l0.4375 0.4375l0 4.34375l0.15625 0q1.9375 -2.53125 4.3125 -3.84375q2.375 -1.3125 4.34375 -1.3125q1.96875 0 3.203125 1.28125q1.234375 1.28125 1.234375 3.4375zm36.65625 26.84375l-15.09375 0l0 -2.0625q0.71875 -0.0625 1.578125 -0.125q0.859375 -0.0625 1.421875 -0.25q0.875 -0.28125 1.296875 -0.984375q0.421875 -0.703125 0.421875 -1.828125l0 -15.84375q0 -3.28125 -1.546875 -5.0625q-1.546875 -1.78125 -3.765625 -1.78125q-1.65625 0 -3.03125 0.515625q-1.375 0.515625 -2.4375 1.265625q-1.03125 0.71875 -1.640625 1.546875q-0.609375 0.828125 -0.890625 1.328125l0 17.71875q0 1.0625 0.4375 1.75q0.4375 0.6875 1.3125 1.0625q0.65625 0.3125 1.421875 0.46875q0.765625 0.15625 1.578125 0.21875l0 2.0625l-15.09375 0l0 -2.0625q0.71875 -0.0625 1.484375 -0.125q0.765625 -0.0625 1.328125 -0.25q0.875 -0.28125 1.296875 -0.984375q0.421875 -0.703125 0.421875 -1.828125l0 -19.03125q0 -1.0625 -0.453125 -1.953125q-0.453125 -0.890625 -1.265625 -1.453125q-0.59375 -0.375 -1.40625 -0.546875q-0.8125 -0.171875 -1.75 -0.234375l0 -2.03125l10.25 -0.6875l0.4375 0.4375l0 4.34375l0.15625 0q0.75 -0.75 1.875 -1.796875q1.125 -1.046875 2.125 -1.703125q1.15625 -0.75 2.75 -1.25q1.59375 -0.5 3.59375 -0.5q4.4375 0 6.578125 2.765625q2.140625 2.765625 2.140625 7.359375l0 16.03125q0 1.09375 0.375 1.765625q0.375 0.671875 1.28125 1.046875q0.75 0.3125 1.296875 0.4375q0.546875 0.125 1.515625 0.1875l0 2.0625zm33.8125 -15.71875q0 3.25 -1.03125 6.390625q-1.03125 3.140625 -2.9375 5.328125q-2.15625 2.5 -5.0 3.71875q-2.84375 1.21875 -6.375 1.21875q-2.9375 0 -5.59375 -1.109375q-2.65625 -1.109375 -4.71875 -3.234375q-2.03125 -2.09375 -3.234375 -5.109375q-1.203125 -3.015625 -1.203125 -6.765625q0 -7.21875 4.203125 -11.8125q4.203125 -4.59375 11.015625 -4.59375q6.46875 0 10.671875 4.359375q4.203125 4.359375 4.203125 11.609375zm-6.46875 0.0625q0 -2.34375 -0.46875 -4.953125q-0.46875 -2.609375 -1.40625 -4.421875q-1.0 -1.9375 -2.625 -3.109375q-1.625 -1.171875 -3.96875 -1.171875q-2.40625 0 -4.109375 1.1875q-1.703125 1.1875 -2.765625 3.25q-1.0 1.90625 -1.40625 4.34375q-0.40625 2.4375 -0.40625 4.71875q0 3.0 0.484375 5.546875q0.484375 2.546875 1.546875 4.546875q1.0625 2.0 2.671875 3.140625q1.609375 1.140625 3.984375 1.140625q3.90625 0 6.1875 -3.78125q2.28125 -3.78125 2.28125 -10.4375zm31.28125 0.5625q1.28125 1.125 1.96875 2.59375q0.6875 1.46875 0.6875 3.59375q0 4.28125 -3.203125 7.0q-3.203125 2.71875 -8.296875 2.71875q-2.6875 0 -4.953125 -0.96875q-2.265625 -0.96875 -3.234375 -1.78125l-0.625 2.03125l-2.34375 0l-0.3125 -10.71875l2.15625 0q0.25 1.21875 1.0625 2.84375q0.8125 1.625 1.96875 2.9375q1.21875 1.375 2.921875 2.3125q1.703125 0.9375 3.828125 0.9375q3.0 0 4.625 -1.359375q1.625 -1.359375 1.625 -3.890625q0 -1.3125 -0.515625 -2.265625q-0.515625 -0.953125 -1.515625 -1.671875q-1.03125 -0.71875 -2.53125 -1.296875q-1.5 -0.578125 -3.34375 -1.140625q-1.46875 -0.4375 -3.265625 -1.203125q-1.796875 -0.765625 -3.078125 -1.796875q-1.375 -1.09375 -2.25 -2.6875q-0.875 -1.59375 -0.875 -3.75q0 -3.78125 2.8125 -6.40625q2.8125 -2.625 7.53125 -2.625q1.8125 0 3.703125 0.46875q1.890625 0.46875 3.078125 1.125l0.71875 -1.625l2.25 0l0.46875 9.90625l-2.15625 0q-0.65625 -3.3125 -2.828125 -5.390625q-2.171875 -2.078125 -5.296875 -2.078125q-2.5625 0 -4.03125 1.28125q-1.46875 1.28125 -1.46875 3.09375q0 1.40625 0.484375 2.34375q0.484375 0.9375 1.453125 1.59375q0.9375 0.625 2.359375 1.171875q1.421875 0.546875 3.515625 1.234375q2.0625 0.65625 3.890625 1.53125q1.828125 0.875 3.015625 1.9375z" fill-rule="nonzero"></path><path fill="#ffffff" d="m129.28125 354.17197q2.9375 3.0625 4.59375 7.390625q1.65625 4.328125 1.65625 9.578125q0 5.28125 -1.6875 9.59375q-1.6875 4.3125 -4.6875 7.34375q-2.90625 3.0 -6.75 4.625q-3.84375 1.625 -8.1875 1.625q-4.625 0 -8.546875 -1.734375q-3.921875 -1.734375 -6.734375 -4.828125q-2.8125 -3.03125 -4.421875 -7.359375q-1.609375 -4.328125 -1.609375 -9.265625q0 -5.40625 1.6875 -9.640625q1.6875 -4.234375 4.65625 -7.328125q2.9375 -3.0625 6.828125 -4.6875q3.890625 -1.625 8.140625 -1.625q4.40625 0 8.3125 1.65625q3.90625 1.65625 6.75 4.65625zm-4.65625 31.4375q1.75 -2.84375 2.546875 -6.4375q0.796875 -3.59375 0.796875 -8.03125q0 -4.5625 -0.890625 -8.375q-0.890625 -3.8125 -2.609375 -6.5q-1.71875 -2.65625 -4.3125 -4.140625q-2.59375 -1.484375 -5.9375 -1.484375q-3.75 0 -6.375 1.71875q-2.625 1.71875 -4.28125 4.59375q-1.5625 2.75 -2.328125 6.4375q-0.765625 3.6875 -0.765625 7.75q0 4.5 0.8125 8.125q0.8125 3.625 2.5625 6.4375q1.6875 2.75 4.25 4.296875q2.5625 1.546875 6.125 1.546875q3.34375 0 6.03125 -1.5625q2.6875 -1.5625 4.375 -4.375zm39.25 -19.1875q0 1.59375 -0.78125 2.828125q-0.78125 1.234375 -2.40625 1.234375q-1.75 0 -2.671875 -0.90625q-0.921875 -0.90625 -0.921875 -2.0q0 -0.6875 0.109375 -1.25q0.109375 -0.5625 0.203125 -1.125q-1.46875 0 -3.4375 1.1875q-1.96875 1.1875 -3.34375 3.375l0 17.9375q0 1.09375 0.421875 1.78125q0.421875 0.6875 1.328125 1.03125q0.78125 0.3125 2.015625 0.46875q1.234375 0.15625 2.140625 0.21875l0 2.0625l-16.25 0l0 -2.0625q0.71875 -0.0625 1.484375 -0.125q0.765625 -0.0625 1.328125 -0.25q0.875 -0.28125 1.296875 -0.984375q0.421875 -0.703125 0.421875 -1.828125l0 -19.03125q0 -0.96875 -0.453125 -1.90625q-0.453125 -0.9375 -1.265625 -1.5q-0.59375 -0.375 -1.40625 -0.546875q-0.8125 -0.171875 -1.75 -0.234375l0 -2.03125l10.25 -0.6875l0.4375 0.4375l0 4.34375l0.15625 0q1.9375 -2.53125 4.3125 -3.84375q2.375 -1.3125 4.34375 -1.3125q1.96875 0 3.203125 1.28125q1.234375 1.28125 1.234375 3.4375zm31.8125 26.28125q-1.46875 0.53125 -2.578125 0.859375q-1.109375 0.328125 -2.515625 0.328125q-2.4375 0 -3.890625 -1.140625q-1.453125 -1.140625 -1.859375 -3.328125l-0.1875 0q-2.03125 2.25 -4.359375 3.4375q-2.328125 1.1875 -5.609375 1.1875q-3.46875 0 -5.703125 -2.125q-2.234375 -2.125 -2.234375 -5.5625q0 -1.78125 0.5 -3.1875q0.5 -1.40625 1.5 -2.53125q0.78125 -0.9375 2.0625 -1.671875q1.28125 -0.734375 2.40625 -1.171875q1.40625 -0.53125 5.703125 -1.96875q4.296875 -1.4375 5.796875 -2.25l0 -3.09375q0 -0.40625 -0.171875 -1.5625q-0.171875 -1.15625 -0.734375 -2.1875q-0.625 -1.15625 -1.765625 -2.015625q-1.140625 -0.859375 -3.234375 -0.859375q-1.4375 0 -2.671875 0.484375q-1.234375 0.484375 -1.734375 1.015625q0 0.625 0.296875 1.84375q0.296875 1.21875 0.296875 2.25q0 1.09375 -0.984375 2.0q-0.984375 0.90625 -2.734375 0.90625q-1.5625 0 -2.296875 -1.109375q-0.734375 -1.109375 -0.734375 -2.484375q0 -1.4375 1.015625 -2.75q1.015625 -1.3125 2.640625 -2.34375q1.40625 -0.875 3.40625 -1.484375q2.0 -0.609375 3.90625 -0.609375q2.625 0 4.578125 0.359375q1.953125 0.359375 3.546875 1.546875q1.59375 1.15625 2.421875 3.140625q0.828125 1.984375 0.828125 5.109375q0 4.46875 -0.09375 7.921875q-0.09375 3.453125 -0.09375 7.546875q0 1.21875 0.421875 1.9375q0.421875 0.71875 1.296875 1.21875q0.46875 0.28125 1.484375 0.3125q1.015625 0.03125 2.078125 0.03125l0 2.0zm-10.90625 -16.5q-2.65625 0.78125 -4.65625 1.53125q-2.0 0.75 -3.71875 1.875q-1.5625 1.0625 -2.46875 2.515625q-0.90625 1.453125 -0.90625 3.453125q0 2.59375 1.359375 3.8125q1.359375 1.21875 3.453125 1.21875q2.21875 0 3.90625 -1.078125q1.6875 -1.078125 2.84375 -2.546875l0.1875 -10.78125zm28.21875 17.875q-6.6875 0 -10.46875 -4.4375q-3.78125 -4.4375 -3.78125 -11.90625q0 -3.25 1.015625 -6.078125q1.015625 -2.828125 2.953125 -5.140625q1.84375 -2.21875 4.625 -3.578125q2.78125 -1.359375 6.0625 -1.359375q4.53125 0 7.375 2.171875q2.84375 2.171875 2.84375 5.921875q0 1.5625 -0.75 2.765625q-0.75 1.203125 -2.46875 1.203125q-1.84375 0 -2.859375 -0.9375q-1.015625 -0.9375 -1.015625 -2.09375q0 -1.40625 0.375 -2.890625q0.375 -1.484375 0.4375 -2.171875q-0.5625 -0.96875 -1.671875 -1.296875q-1.109375 -0.328125 -2.390625 -0.328125q-1.5 0 -2.859375 0.640625q-1.359375 0.640625 -2.640625 2.359375q-1.15625 1.5625 -1.875 4.21875q-0.71875 2.65625 -0.71875 6.34375q0 5.8125 2.578125 9.484375q2.578125 3.671875 6.765625 3.671875q3.03125 0 5.078125 -1.46875q2.046875 -1.46875 3.796875 -4.40625l2.0 1.3125q-2.0625 3.6875 -5.4375 5.84375q-3.375 2.15625 -6.96875 2.15625zm29.25 -0.8125l-15.03125 0l0 -2.0625q0.71875 -0.0625 1.53125 -0.140625q0.8125 -0.078125 1.34375 -0.234375q0.875 -0.28125 1.3125 -0.984375q0.4375 -0.703125 0.4375 -1.828125l0 -35.6875q0 -1.125 -0.484375 -2.109375q-0.484375 -0.984375 -1.265625 -1.546875q-0.5625 -0.375 -2.0625 -0.6875q-1.5 -0.3125 -2.40625 -0.375l0 -2.0l11.59375 -0.71875l0.4375 0.46875l0 42.28125q0 1.09375 0.40625 1.796875q0.40625 0.703125 1.3125 1.078125q0.6875 0.3125 1.359375 0.46875q0.671875 0.15625 1.515625 0.21875l0 2.0625zm31.25 -7.25q-1.9375 3.6875 -5.1875 5.875q-3.25 2.1875 -7.46875 2.1875q-3.71875 0 -6.515625 -1.3125q-2.796875 -1.3125 -4.609375 -3.5625q-1.8125 -2.25 -2.703125 -5.25q-0.890625 -3.0 -0.890625 -6.34375q0 -3.0 0.953125 -5.890625q0.953125 -2.890625 2.796875 -5.203125q1.78125 -2.21875 4.421875 -3.578125q2.640625 -1.359375 5.921875 -1.359375q3.375 0 5.78125 1.0625q2.40625 1.0625 3.90625 2.90625q1.4375 1.75 2.140625 4.125q0.703125 2.375 0.703125 5.15625l0 2.0625l-20.40625 0q0 3.03125 0.578125 5.5q0.578125 2.46875 1.828125 4.34375q1.21875 1.8125 3.1875 2.859375q1.96875 1.046875 4.6875 1.046875q2.78125 0 4.796875 -1.296875q2.015625 -1.296875 3.890625 -4.671875l2.1875 1.34375zm-6.90625 -11.75q0 -1.75 -0.296875 -3.75q-0.296875 -2.0 -0.953125 -3.34375q-0.71875 -1.4375 -1.96875 -2.34375q-1.25 -0.90625 -3.21875 -0.90625q-3.28125 0 -5.453125 2.734375q-2.171875 2.734375 -2.359375 7.609375l14.25 0zm59.65625 18.4375l-10.75 0.6875l-0.46875 -0.4375l0 -2.875l-0.25 -0.0625q-1.625 1.8125 -4.015625 2.96875q-2.390625 1.15625 -4.921875 1.15625q-2.625 0 -5.078125 -1.171875q-2.453125 -1.171875 -4.265625 -3.296875q-1.84375 -2.15625 -2.921875 -5.1875q-1.078125 -3.03125 -1.078125 -6.6875q0 -3.34375 1.15625 -6.34375q1.15625 -3.0 3.1875 -5.25q1.90625 -2.09375 4.671875 -3.34375q2.765625 -1.25 5.640625 -1.25q2.15625 0 4.234375 0.546875q2.078125 0.546875 3.578125 1.390625l0 -10.71875q0 -1.3125 -0.4375 -2.390625q-0.4375 -1.078125 -1.21875 -1.640625q-0.875 -0.59375 -2.359375 -0.859375q-1.484375 -0.265625 -3.203125 -0.390625l0 -1.9375l12.59375 -0.71875l0.46875 0.46875l0 41.5625q0 1.09375 0.421875 1.859375q0.421875 0.765625 1.234375 1.296875q0.59375 0.375 1.71875 0.46875q1.125 0.09375 2.0625 0.125l0 2.03125zm-11.28125 -5.40625l0 -18.03125q-0.25 -0.8125 -0.8125 -1.75q-0.5625 -0.9375 -1.40625 -1.71875q-0.90625 -0.78125 -2.125 -1.296875q-1.21875 -0.515625 -2.84375 -0.515625q-1.875 0 -3.453125 0.96875q-1.578125 0.96875 -2.796875 2.78125q-1.15625 1.75 -1.828125 4.453125q-0.671875 2.703125 -0.671875 5.984375q0 2.625 0.5 4.765625q0.5 2.140625 1.6875 3.984375q1.09375 1.75 2.796875 2.8125q1.703125 1.0625 4.046875 1.0625q2.5 0 4.140625 -1.09375q1.640625 -1.09375 2.765625 -2.40625zm41.65625 -1.28125q-1.9375 3.6875 -5.1875 5.875q-3.25 2.1875 -7.46875 2.1875q-3.71875 0 -6.515625 -1.3125q-2.796875 -1.3125 -4.609375 -3.5625q-1.8125 -2.25 -2.703125 -5.25q-0.890625 -3.0 -0.890625 -6.34375q0 -3.0 0.953125 -5.890625q0.953125 -2.890625 2.796875 -5.203125q1.78125 -2.21875 4.421875 -3.578125q2.640625 -1.359375 5.921875 -1.359375q3.375 0 5.78125 1.0625q2.40625 1.0625 3.90625 2.90625q1.4375 1.75 2.140625 4.125q0.703125 2.375 0.703125 5.15625l0 2.0625l-20.40625 0q0 3.03125 0.578125 5.5q0.578125 2.46875 1.828125 4.34375q1.21875 1.8125 3.1875 2.859375q1.96875 1.046875 4.6875 1.046875q2.78125 0 4.796875 -1.296875q2.015625 -1.296875 3.890625 -4.671875l2.1875 1.34375zm-6.90625 -11.75q0 -1.75 -0.296875 -3.75q-0.296875 -2.0 -0.953125 -3.34375q-0.71875 -1.4375 -1.96875 -2.34375q-1.25 -0.90625 -3.21875 -0.90625q-3.28125 0 -5.453125 2.734375q-2.171875 2.734375 -2.359375 7.609375l14.25 0zm48.84375 -25.65625q0 1.40625 -0.75 2.375q-0.75 0.96875 -2.28125 0.96875q-0.96875 0 -1.703125 -0.40625q-0.734375 -0.40625 -1.359375 -1.09375q-0.625 -0.6875 -1.15625 -1.5625q-0.53125 -0.875 -0.90625 -1.40625q-2.09375 0.09375 -3.234375 2.921875q-1.140625 2.828125 -1.140625 9.015625l0 3.15625l7.9375 0l0 3.0l-7.9375 0l0 22.125q0 1.09375 0.421875 1.78125q0.421875 0.6875 1.328125 1.03125q0.75 0.28125 2.0 0.453125q1.25 0.171875 2.15625 0.234375l0 2.0625l-16.25 0l0 -2.0625q0.71875 -0.0625 1.484375 -0.125q0.765625 -0.0625 1.328125 -0.25q0.875 -0.28125 1.296875 -0.984375q0.421875 -0.703125 0.421875 -1.828125l0 -22.4375l-6.09375 0l0 -3.0l6.09375 0l0 -1.96875q0 -7.03125 3.640625 -11.390625q3.640625 -4.359375 9.109375 -4.359375q2.78125 0 4.1875 1.09375q1.40625 1.09375 1.40625 2.65625zm27.90625 28.9375q0 3.25 -1.03125 6.390625q-1.03125 3.140625 -2.9375 5.328125q-2.15625 2.5 -5.0 3.71875q-2.84375 1.21875 -6.375 1.21875q-2.9375 0 -5.59375 -1.109375q-2.65625 -1.109375 -4.71875 -3.234375q-2.03125 -2.09375 -3.234375 -5.109375q-1.203125 -3.015625 -1.203125 -6.765625q0 -7.21875 4.203125 -11.8125q4.203125 -4.59375 11.015625 -4.59375q6.46875 0 10.671875 4.359375q4.203125 4.359375 4.203125 11.609375zm-6.46875 0.0625q0 -2.34375 -0.46875 -4.953125q-0.46875 -2.609375 -1.40625 -4.421875q-1.0 -1.9375 -2.625 -3.109375q-1.625 -1.171875 -3.96875 -1.171875q-2.40625 0 -4.109375 1.1875q-1.703125 1.1875 -2.765625 3.25q-1.0 1.90625 -1.40625 4.34375q-0.40625 2.4375 -0.40625 4.71875q0 3.0 0.484375 5.546875q0.484375 2.546875 1.546875 4.546875q1.0625 2.0 2.671875 3.140625q1.609375 1.140625 3.984375 1.140625q3.90625 0 6.1875 -3.78125q2.28125 -3.78125 2.28125 -10.4375zm34.53125 -11.1875q0 1.59375 -0.78125 2.828125q-0.78125 1.234375 -2.40625 1.234375q-1.75 0 -2.671875 -0.90625q-0.921875 -0.90625 -0.921875 -2.0q0 -0.6875 0.109375 -1.25q0.109375 -0.5625 0.203125 -1.125q-1.46875 0 -3.4375 1.1875q-1.96875 1.1875 -3.34375 3.375l0 17.9375q0 1.09375 0.421875 1.78125q0.421875 0.6875 1.328125 1.03125q0.78125 0.3125 2.015625 0.46875q1.234375 0.15625 2.140625 0.21875l0 2.0625l-16.25 0l0 -2.0625q0.71875 -0.0625 1.484375 -0.125q0.765625 -0.0625 1.328125 -0.25q0.875 -0.28125 1.296875 -0.984375q0.421875 -0.703125 0.421875 -1.828125l0 -19.03125q0 -0.96875 -0.453125 -1.90625q-0.453125 -0.9375 -1.265625 -1.5q-0.59375 -0.375 -1.40625 -0.546875q-0.8125 -0.171875 -1.75 -0.234375l0 -2.03125l10.25 -0.6875l0.4375 0.4375l0 4.34375l0.15625 0q1.9375 -2.53125 4.3125 -3.84375q2.375 -1.3125 4.34375 -1.3125q1.96875 0 3.203125 1.28125q1.234375 1.28125 1.234375 3.4375zm55.40625 26.84375l-15.03125 0l0 -2.0625q0.71875 -0.0625 1.453125 -0.125q0.734375 -0.0625 1.296875 -0.25q0.875 -0.28125 1.296875 -0.984375q0.421875 -0.703125 0.421875 -1.828125l0 -15.90625q0 -3.25 -1.484375 -5.015625q-1.484375 -1.765625 -3.703125 -1.765625q-1.53125 0 -2.875 0.46875q-1.34375 0.46875 -2.46875 1.3125q-0.90625 0.6875 -1.515625 1.484375q-0.609375 0.796875 -0.921875 1.328125l0 17.78125q0 1.09375 0.375 1.796875q0.375 0.703125 1.28125 1.078125q0.71875 0.28125 1.296875 0.421875q0.578125 0.140625 1.515625 0.203125l0 2.0625l-14.71875 0l0 -2.0625q0.71875 -0.0625 1.390625 -0.125q0.671875 -0.0625 1.234375 -0.25q0.875 -0.28125 1.296875 -0.984375q0.421875 -0.703125 0.421875 -1.828125l0 -15.90625q0 -3.25 -1.484375 -5.015625q-1.484375 -1.765625 -3.703125 -1.765625q-1.53125 0 -2.875 0.484375q-1.34375 0.484375 -2.46875 1.328125q-0.90625 0.6875 -1.53125 1.546875q-0.625 0.859375 -0.9375 1.296875l0 17.65625q0 1.0625 0.4375 1.78125q0.4375 0.71875 1.3125 1.09375q0.65625 0.3125 1.34375 0.46875q0.6875 0.15625 1.53125 0.21875l0 2.0625l-14.96875 0l0 -2.0625q0.71875 -0.0625 1.484375 -0.125q0.765625 -0.0625 1.328125 -0.25q0.875 -0.28125 1.296875 -0.984375q0.421875 -0.703125 0.421875 -1.828125l0 -19.15625q0 -1.0 -0.453125 -1.796875q-0.453125 -0.796875 -1.265625 -1.359375q-0.59375 -0.375 -1.46875 -0.609375q-0.875 -0.234375 -1.8125 -0.296875l0 -2.03125l10.3125 -0.6875l0.4375 0.4375l0 4.40625l0.21875 0q0.78125 -0.78125 1.90625 -1.84375q1.125 -1.0625 2.09375 -1.71875q1.09375 -0.75 2.734375 -1.25q1.640625 -0.5 3.546875 -0.5q3.0 0 5.15625 1.609375q2.15625 1.609375 3.09375 3.890625q1.125 -1.09375 1.984375 -1.921875q0.859375 -0.828125 2.265625 -1.765625q1.1875 -0.8125 2.796875 -1.3125q1.609375 -0.5 3.578125 -0.5q3.90625 0 6.1875 2.5625q2.28125 2.5625 2.28125 7.875l0 15.65625q0 1.09375 0.375 1.796875q0.375 0.703125 1.28125 1.078125q0.71875 0.28125 1.421875 0.421875q0.703125 0.140625 1.578125 0.203125l0 2.0625zm32.78125 -0.5625q-1.46875 0.53125 -2.578125 0.859375q-1.109375 0.328125 -2.515625 0.328125q-2.4375 0 -3.890625 -1.140625q-1.453125 -1.140625 -1.859375 -3.328125l-0.1875 0q-2.03125 2.25 -4.359375 3.4375q-2.328125 1.1875 -5.609375 1.1875q-3.46875 0 -5.703125 -2.125q-2.234375 -2.125 -2.234375 -5.5625q0 -1.78125 0.5 -3.1875q0.5 -1.40625 1.5 -2.53125q0.78125 -0.9375 2.0625 -1.671875q1.28125 -0.734375 2.40625 -1.171875q1.40625 -0.53125 5.703125 -1.96875q4.296875 -1.4375 5.796875 -2.25l0 -3.09375q0 -0.40625 -0.171875 -1.5625q-0.171875 -1.15625 -0.734375 -2.1875q-0.625 -1.15625 -1.765625 -2.015625q-1.140625 -0.859375 -3.234375 -0.859375q-1.4375 0 -2.671875 0.484375q-1.234375 0.484375 -1.734375 1.015625q0 0.625 0.296875 1.84375q0.296875 1.21875 0.296875 2.25q0 1.09375 -0.984375 2.0q-0.984375 0.90625 -2.734375 0.90625q-1.5625 0 -2.296875 -1.109375q-0.734375 -1.109375 -0.734375 -2.484375q0 -1.4375 1.015625 -2.75q1.015625 -1.3125 2.640625 -2.34375q1.40625 -0.875 3.40625 -1.484375q2.0 -0.609375 3.90625 -0.609375q2.625 0 4.578125 0.359375q1.953125 0.359375 3.546875 1.546875q1.59375 1.15625 2.421875 3.140625q0.828125 1.984375 0.828125 5.109375q0 4.46875 -0.09375 7.921875q-0.09375 3.453125 -0.09375 7.546875q0 1.21875 0.421875 1.9375q0.421875 0.71875 1.296875 1.21875q0.46875 0.28125 1.484375 0.3125q1.015625 0.03125 2.078125 0.03125l0 2.0zm-10.90625 -16.5q-2.65625 0.78125 -4.65625 1.53125q-2.0 0.75 -3.71875 1.875q-1.5625 1.0625 -2.46875 2.515625q-0.90625 1.453125 -0.90625 3.453125q0 2.59375 1.359375 3.8125q1.359375 1.21875 3.453125 1.21875q2.21875 0 3.90625 -1.078125q1.6875 -1.078125 2.84375 -2.546875l0.1875 -10.78125zm63.15625 16.5l-10.75 0.6875l-0.46875 -0.4375l0 -2.875l-0.25 -0.0625q-1.625 1.8125 -4.015625 2.96875q-2.390625 1.15625 -4.921875 1.15625q-2.625 0 -5.078125 -1.171875q-2.453125 -1.171875 -4.265625 -3.296875q-1.84375 -2.15625 -2.921875 -5.1875q-1.078125 -3.03125 -1.078125 -6.6875q0 -3.34375 1.15625 -6.34375q1.15625 -3.0 3.1875 -5.25q1.90625 -2.09375 4.671875 -3.34375q2.765625 -1.25 5.640625 -1.25q2.15625 0 4.234375 0.546875q2.078125 0.546875 3.578125 1.390625l0 -10.71875q0 -1.3125 -0.4375 -2.390625q-0.4375 -1.078125 -1.21875 -1.640625q-0.875 -0.59375 -2.359375 -0.859375q-1.484375 -0.265625 -3.203125 -0.390625l0 -1.9375l12.59375 -0.71875l0.46875 0.46875l0 41.5625q0 1.09375 0.421875 1.859375q0.421875 0.765625 1.234375 1.296875q0.59375 0.375 1.71875 0.46875q1.125 0.09375 2.0625 0.125l0 2.03125zm-11.28125 -5.40625l0 -18.03125q-0.25 -0.8125 -0.8125 -1.75q-0.5625 -0.9375 -1.40625 -1.71875q-0.90625 -0.78125 -2.125 -1.296875q-1.21875 -0.515625 -2.84375 -0.515625q-1.875 0 -3.453125 0.96875q-1.578125 0.96875 -2.796875 2.78125q-1.15625 1.75 -1.828125 4.453125q-0.671875 2.703125 -0.671875 5.984375q0 2.625 0.5 4.765625q0.5 2.140625 1.6875 3.984375q1.09375 1.75 2.796875 2.8125q1.703125 1.0625 4.046875 1.0625q2.5 0 4.140625 -1.09375q1.640625 -1.09375 2.765625 -2.40625zm29.25 5.96875l-14.90625 0l0 -2.0625q0.71875 -0.0625 1.484375 -0.125q0.765625 -0.0625 1.328125 -0.25q0.875 -0.28125 1.296875 -0.984375q0.421875 -0.703125 0.421875 -1.828125l0 -19.03125q0 -1.0 -0.453125 -1.828125q-0.453125 -0.828125 -1.265625 -1.390625q-0.59375 -0.375 -1.71875 -0.640625q-1.125 -0.265625 -2.0625 -0.328125l0 -2.03125l10.875 -0.6875l0.4375 0.4375l0 25.125q0 1.09375 0.421875 1.8125q0.421875 0.71875 1.328125 1.0625q0.6875 0.28125 1.34375 0.453125q0.65625 0.171875 1.46875 0.234375l0 2.0625zm-3.9375 -43.34375q0 1.78125 -1.171875 3.109375q-1.171875 1.328125 -2.890625 1.328125q-1.59375 0 -2.765625 -1.265625q-1.171875 -1.265625 -1.171875 -2.890625q0 -1.71875 1.171875 -3.0q1.171875 -1.28125 2.765625 -1.28125q1.78125 0 2.921875 1.203125q1.140625 1.203125 1.140625 2.796875zm28.0625 28.25q1.28125 1.125 1.96875 2.59375q0.6875 1.46875 0.6875 3.59375q0 4.28125 -3.203125 7.0q-3.203125 2.71875 -8.296875 2.71875q-2.6875 0 -4.953125 -0.96875q-2.265625 -0.96875 -3.234375 -1.78125l-0.625 2.03125l-2.34375 0l-0.3125 -10.71875l2.15625 0q0.25 1.21875 1.0625 2.84375q0.8125 1.625 1.96875 2.9375q1.21875 1.375 2.921875 2.3125q1.703125 0.9375 3.828125 0.9375q3.0 0 4.625 -1.359375q1.625 -1.359375 1.625 -3.890625q0 -1.3125 -0.515625 -2.265625q-0.515625 -0.953125 -1.515625 -1.671875q-1.03125 -0.71875 -2.53125 -1.296875q-1.5 -0.578125 -3.34375 -1.140625q-1.46875 -0.4375 -3.265625 -1.203125q-1.796875 -0.765625 -3.078125 -1.796875q-1.375 -1.09375 -2.25 -2.6875q-0.875 -1.59375 -0.875 -3.75q0 -3.78125 2.8125 -6.40625q2.8125 -2.625 7.53125 -2.625q1.8125 0 3.703125 0.46875q1.890625 0.46875 3.078125 1.125l0.71875 -1.625l2.25 0l0.46875 9.90625l-2.15625 0q-0.65625 -3.3125 -2.828125 -5.390625q-2.171875 -2.078125 -5.296875 -2.078125q-2.5625 0 -4.03125 1.28125q-1.46875 1.28125 -1.46875 3.09375q0 1.40625 0.484375 2.34375q0.484375 0.9375 1.453125 1.59375q0.9375 0.625 2.359375 1.171875q1.421875 0.546875 3.515625 1.234375q2.0625 0.65625 3.890625 1.53125q1.828125 0.875 3.015625 1.9375zm26.34375 13.75q-2.03125 0.84375 -3.84375 1.421875q-1.8125 0.578125 -4.4375 0.578125q-3.875 0 -5.453125 -1.953125q-1.578125 -1.953125 -1.578125 -5.515625l0 -20.875l-5.5625 0l0 -3.0l5.6875 0l0 -9.59375l5.6875 0l0 9.59375l8.84375 0l0 3.0l-8.78125 0l0 17.21875q0 1.9375 0.140625 3.234375q0.140625 1.296875 0.671875 2.265625q0.5 0.90625 1.5 1.375q1.0 0.46875 2.6875 0.46875q0.78125 0 2.296875 -0.140625q1.515625 -0.140625 2.140625 -0.359375l0 2.28125zm26.65625 -25.5q0 1.59375 -0.78125 2.828125q-0.78125 1.234375 -2.40625 1.234375q-1.75 0 -2.671875 -0.90625q-0.921875 -0.90625 -0.921875 -2.0q0 -0.6875 0.109375 -1.25q0.109375 -0.5625 0.203125 -1.125q-1.46875 0 -3.4375 1.1875q-1.96875 1.1875 -3.34375 3.375l0 17.9375q0 1.09375 0.421875 1.78125q0.421875 0.6875 1.328125 1.03125q0.78125 0.3125 2.015625 0.46875q1.234375 0.15625 2.140625 0.21875l0 2.0625l-16.25 0l0 -2.0625q0.71875 -0.0625 1.484375 -0.125q0.765625 -0.0625 1.328125 -0.25q0.875 -0.28125 1.296875 -0.984375q0.421875 -0.703125 0.421875 -1.828125l0 -19.03125q0 -0.96875 -0.453125 -1.90625q-0.453125 -0.9375 -1.265625 -1.5q-0.59375 -0.375 -1.40625 -0.546875q-0.8125 -0.171875 -1.75 -0.234375l0 -2.03125l10.25 -0.6875l0.4375 0.4375l0 4.34375l0.15625 0q1.9375 -2.53125 4.3125 -3.84375q2.375 -1.3125 4.34375 -1.3125q1.96875 0 3.203125 1.28125q1.234375 1.28125 1.234375 3.4375zm17.59375 26.84375l-14.90625 0l0 -2.0625q0.71875 -0.0625 1.484375 -0.125q0.765625 -0.0625 1.328125 -0.25q0.875 -0.28125 1.296875 -0.984375q0.421875 -0.703125 0.421875 -1.828125l0 -19.03125q0 -1.0 -0.453125 -1.828125q-0.453125 -0.828125 -1.265625 -1.390625q-0.59375 -0.375 -1.71875 -0.640625q-1.125 -0.265625 -2.0625 -0.328125l0 -2.03125l10.875 -0.6875l0.4375 0.4375l0 25.125q0 1.09375 0.421875 1.8125q0.421875 0.71875 1.328125 1.0625q0.6875 0.28125 1.34375 0.453125q0.65625 0.171875 1.46875 0.234375l0 2.0625zm-3.9375 -43.34375q0 1.78125 -1.171875 3.109375q-1.171875 1.328125 -2.890625 1.328125q-1.59375 0 -2.765625 -1.265625q-1.171875 -1.265625 -1.171875 -2.890625q0 -1.71875 1.171875 -3.0q1.171875 -1.28125 2.765625 -1.28125q1.78125 0 2.921875 1.203125q1.140625 1.203125 1.140625 2.796875zm39.0 27.90625q0 6.9375 -4.375 11.65625q-4.375 4.71875 -10.15625 4.71875q-2.53125 0 -4.984375 -0.78125q-2.453125 -0.78125 -4.609375 -2.09375l-2.3125 3.59375l-1.9375 -0.4375q0.15625 -2.3125 0.21875 -5.5625q0.0625 -3.25 0.0625 -6.28125l0 -30.5q0 -1.0625 -0.484375 -2.125q-0.484375 -1.0625 -1.234375 -1.53125q-0.59375 -0.40625 -1.984375 -0.609375q-1.390625 -0.203125 -2.234375 -0.265625l0 -2.0l11.3125 -0.71875l0.4375 0.46875l0 20.3125l0.21875 0.0625q1.9375 -2.0625 4.234375 -3.09375q2.296875 -1.03125 4.515625 -1.03125q5.6875 0 9.5 4.5q3.8125 4.5 3.8125 11.71875zm-6.53125 0.21875q0 -2.3125 -0.5 -4.71875q-0.5 -2.40625 -1.5625 -4.1875q-1.0625 -1.8125 -2.78125 -2.9375q-1.71875 -1.125 -4.125 -1.125q-2.1875 0 -3.828125 0.859375q-1.640625 0.859375 -2.953125 2.328125l0 17.9375q0.1875 0.75 0.734375 1.75q0.546875 1.0 1.484375 1.90625q0.9375 0.875 2.125 1.421875q1.1875 0.546875 2.90625 0.546875q3.8125 0 6.15625 -3.6875q2.34375 -3.6875 2.34375 -10.09375zm44.125 14.65625l-10.03125 0.6875l-0.46875 -0.4375l0 -3.90625l-0.1875 0q-0.75 0.78125 -1.6875 1.671875q-0.9375 0.890625 -2.15625 1.609375q-1.40625 0.84375 -2.71875 1.28125q-1.3125 0.4375 -3.71875 0.4375q-4.09375 0 -6.234375 -2.671875q-2.140625 -2.671875 -2.140625 -7.765625l0 -14.75q0 -1.125 -0.421875 -1.890625q-0.421875 -0.765625 -1.234375 -1.328125q-0.5625 -0.375 -1.40625 -0.546875q-0.84375 -0.171875 -1.78125 -0.234375l0 -2.03125l10.28125 -0.75l0.46875 0.4375l0 21.40625q0 3.34375 1.5 5.03125q1.5 1.6875 3.59375 1.6875q1.71875 0 3.0625 -0.53125q1.34375 -0.53125 2.25 -1.25q0.84375 -0.65625 1.484375 -1.390625q0.640625 -0.734375 0.984375 -1.359375l0 -17.46875q0 -1.03125 -0.4375 -1.828125q-0.4375 -0.796875 -1.21875 -1.359375q-0.5625 -0.375 -1.671875 -0.453125q-1.109375 -0.078125 -2.484375 -0.140625l0 -2.03125l11.1875 -0.75l0.46875 0.4375l0 24.46875q0 1.0625 0.4375 1.8125q0.4375 0.75 1.21875 1.28125q0.5625 0.34375 1.34375 0.453125q0.78125 0.109375 1.71875 0.140625l0 2.03125zm18.75 0.5625l-14.90625 0l0 -2.0625q0.71875 -0.0625 1.484375 -0.125q0.765625 -0.0625 1.328125 -0.25q0.875 -0.28125 1.296875 -0.984375q0.421875 -0.703125 0.421875 -1.828125l0 -19.03125q0 -1.0 -0.453125 -1.828125q-0.453125 -0.828125 -1.265625 -1.390625q-0.59375 -0.375 -1.71875 -0.640625q-1.125 -0.265625 -2.0625 -0.328125l0 -2.03125l10.875 -0.6875l0.4375 0.4375l0 25.125q0 1.09375 0.421875 1.8125q0.421875 0.71875 1.328125 1.0625q0.6875 0.28125 1.34375 0.453125q0.65625 0.171875 1.46875 0.234375l0 2.0625zm-3.9375 -43.34375q0 1.78125 -1.171875 3.109375q-1.171875 1.328125 -2.890625 1.328125q-1.59375 0 -2.765625 -1.265625q-1.171875 -1.265625 -1.171875 -2.890625q0 -1.71875 1.171875 -3.0q1.171875 -1.28125 2.765625 -1.28125q1.78125 0 2.921875 1.203125q1.140625 1.203125 1.140625 2.796875zm41.46875 42.78125l-10.75 0.6875l-0.46875 -0.4375l0 -2.875l-0.25 -0.0625q-1.625 1.8125 -4.015625 2.96875q-2.390625 1.15625 -4.921875 1.15625q-2.625 0 -5.078125 -1.171875q-2.453125 -1.171875 -4.265625 -3.296875q-1.84375 -2.15625 -2.921875 -5.1875q-1.078125 -3.03125 -1.078125 -6.6875q0 -3.34375 1.15625 -6.34375q1.15625 -3.0 3.1875 -5.25q1.90625 -2.09375 4.671875 -3.34375q2.765625 -1.25 5.640625 -1.25q2.15625 0 4.234375 0.546875q2.078125 0.546875 3.578125 1.390625l0 -10.71875q0 -1.3125 -0.4375 -2.390625q-0.4375 -1.078125 -1.21875 -1.640625q-0.875 -0.59375 -2.359375 -0.859375q-1.484375 -0.265625 -3.203125 -0.390625l0 -1.9375l12.59375 -0.71875l0.46875 0.46875l0 41.5625q0 1.09375 0.421875 1.859375q0.421875 0.765625 1.234375 1.296875q0.59375 0.375 1.71875 0.46875q1.125 0.09375 2.0625 0.125l0 2.03125zm-11.28125 -5.40625l0 -18.03125q-0.25 -0.8125 -0.8125 -1.75q-0.5625 -0.9375 -1.40625 -1.71875q-0.90625 -0.78125 -2.125 -1.296875q-1.21875 -0.515625 -2.84375 -0.515625q-1.875 0 -3.453125 0.96875q-1.578125 0.96875 -2.796875 2.78125q-1.15625 1.75 -1.828125 4.453125q-0.671875 2.703125 -0.671875 5.984375q0 2.625 0.5 4.765625q0.5 2.140625 1.6875 3.984375q1.09375 1.75 2.796875 2.8125q1.703125 1.0625 4.046875 1.0625q2.5 0 4.140625 -1.09375q1.640625 -1.09375 2.765625 -2.40625zm43.46875 5.40625q-1.46875 0.53125 -2.578125 0.859375q-1.109375 0.328125 -2.515625 0.328125q-2.4375 0 -3.890625 -1.140625q-1.453125 -1.140625 -1.859375 -3.328125l-0.1875 0q-2.03125 2.25 -4.359375 3.4375q-2.328125 1.1875 -5.609375 1.1875q-3.46875 0 -5.703125 -2.125q-2.234375 -2.125 -2.234375 -5.5625q0 -1.78125 0.5 -3.1875q0.5 -1.40625 1.5 -2.53125q0.78125 -0.9375 2.0625 -1.671875q1.28125 -0.734375 2.40625 -1.171875q1.40625 -0.53125 5.703125 -1.96875q4.296875 -1.4375 5.796875 -2.25l0 -3.09375q0 -0.40625 -0.171875 -1.5625q-0.171875 -1.15625 -0.734375 -2.1875q-0.625 -1.15625 -1.765625 -2.015625q-1.140625 -0.859375 -3.234375 -0.859375q-1.4375 0 -2.671875 0.484375q-1.234375 0.484375 -1.734375 1.015625q0 0.625 0.296875 1.84375q0.296875 1.21875 0.296875 2.25q0 1.09375 -0.984375 2.0q-0.984375 0.90625 -2.734375 0.90625q-1.5625 0 -2.296875 -1.109375q-0.734375 -1.109375 -0.734375 -2.484375q0 -1.4375 1.015625 -2.75q1.015625 -1.3125 2.640625 -2.34375q1.40625 -0.875 3.40625 -1.484375q2.0 -0.609375 3.90625 -0.609375q2.625 0 4.578125 0.359375q1.953125 0.359375 3.546875 1.546875q1.59375 1.15625 2.421875 3.140625q0.828125 1.984375 0.828125 5.109375q0 4.46875 -0.09375 7.921875q-0.09375 3.453125 -0.09375 7.546875q0 1.21875 0.421875 1.9375q0.421875 0.71875 1.296875 1.21875q0.46875 0.28125 1.484375 0.3125q1.015625 0.03125 2.078125 0.03125l0 2.0zm-10.90625 -16.5q-2.65625 0.78125 -4.65625 1.53125q-2.0 0.75 -3.71875 1.875q-1.5625 1.0625 -2.46875 2.515625q-0.90625 1.453125 -0.90625 3.453125q0 2.59375 1.359375 3.8125q1.359375 1.21875 3.453125 1.21875q2.21875 0 3.90625 -1.078125q1.6875 -1.078125 2.84375 -2.546875l0.1875 -10.78125z" fill-rule="nonzero"></path><path fill="#000000" fill-opacity="0.0" d="m72.0 433.01587l816.0 0l0 93.322815l-816.0 0z" fill-rule="nonzero"></path><path fill="#30182b" d="m337.0625 455.03275q0 1.890625 -0.84375 3.375q-0.828125 1.484375 -2.140625 2.46875q-1.375 1.03125 -3.078125 1.5625q-1.703125 0.515625 -3.5625 0.515625l-2.703125 0l-1.59375 6.84375q-0.03125 0.140625 -0.046875 0.296875q-0.015625 0.15625 -0.015625 0.265625q0 0.34375 0.125 0.609375q0.125 0.265625 0.5 0.421875q0.234375 0.109375 0.9375 0.203125q0.71875 0.09375 1.28125 0.109375l-0.234375 1.03125l-9.515625 0l0.234375 -1.03125q0.390625 -0.03125 1.109375 -0.109375q0.71875 -0.078125 1.046875 -0.203125q0.5625 -0.21875 0.84375 -0.625q0.296875 -0.421875 0.40625 -0.96875l3.734375 -16.15625q0.03125 -0.140625 0.046875 -0.3125q0.03125 -0.171875 0.03125 -0.328125q0 -0.328125 -0.125 -0.59375q-0.125 -0.265625 -0.46875 -0.40625q-0.5 -0.1875 -1.0625 -0.28125q-0.5625 -0.09375 -1.03125 -0.125l0.234375 -1.03125l9.859375 0q2.671875 0 4.34375 1.203125q1.6875 1.1875 1.6875 3.265625zm-5.0 4.234375q0.640625 -0.921875 0.90625 -1.953125q0.265625 -1.046875 0.265625 -1.953125q0 -0.71875 -0.203125 -1.359375q-0.1875 -0.640625 -0.65625 -1.15625q-0.46875 -0.5 -1.203125 -0.78125q-0.734375 -0.296875 -1.84375 -0.296875l-2.03125 0l-2.265625 9.90625l1.765625 0q1.8125 0 3.125 -0.59375q1.3125 -0.609375 2.140625 -1.8125zm14.890625 11.40625l-0.109375 0q-0.34375 0.28125 -0.828125 0.71875q-0.46875 0.421875 -1.109375 0.8125q-0.609375 0.390625 -1.328125 0.671875q-0.71875 0.296875 -1.5625 0.296875q-2.265625 0 -3.5625 -1.625q-1.28125 -1.625 -1.28125 -4.4375q0 -1.9375 0.71875 -3.765625q0.71875 -1.828125 1.984375 -3.28125q1.203125 -1.390625 2.859375 -2.234375q1.65625 -0.859375 3.40625 -0.859375q1.109375 0 2.109375 0.296875q1.015625 0.296875 1.59375 0.671875l2.859375 -0.734375l0.1875 0.234375l-2.375 10.078125q-0.125 0.484375 -0.265625 1.1875q-0.125 0.6875 -0.125 1.015625q0 0.890625 0.375 1.203125q0.375 0.3125 1.265625 0.3125q0.296875 0 0.84375 -0.09375q0.546875 -0.09375 0.84375 -0.203125l-0.234375 1.0q-1.40625 0.5625 -2.09375 0.8125q-0.6875 0.25 -1.671875 0.25q-1.125 0 -1.78125 -0.65625q-0.65625 -0.65625 -0.71875 -1.671875zm2.234375 -9.875q0 -0.515625 -0.109375 -0.984375q-0.109375 -0.46875 -0.453125 -0.875q-0.3125 -0.390625 -0.859375 -0.625q-0.546875 -0.234375 -1.375 -0.234375q-1.140625 0 -2.21875 0.75q-1.078125 0.75 -1.9375 2.015625q-0.8125 1.1875 -1.328125 2.875q-0.515625 1.6875 -0.515625 3.421875q0 0.953125 0.109375 1.6875q0.109375 0.734375 0.421875 1.34375q0.296875 0.59375 0.859375 0.921875q0.5625 0.328125 1.421875 0.328125q0.875 0 1.828125 -0.484375q0.96875 -0.5 2.171875 -1.734375l1.984375 -8.40625zm21.84375 2.140625q0 2.078125 -0.75 3.984375q-0.75 1.890625 -1.984375 3.265625q-1.265625 1.40625 -2.859375 2.21875q-1.59375 0.796875 -3.375 0.796875q-1.34375 0 -2.375 -0.234375q-1.015625 -0.21875 -1.734375 -0.609375q-0.734375 -0.40625 -1.21875 -0.90625q-0.484375 -0.515625 -0.875 -1.140625l4.03125 -17.6875q0.078125 -0.359375 0.125 -0.609375q0.0625 -0.265625 0.0625 -0.53125q0 -0.5625 -0.1875 -0.859375q-0.1875 -0.3125 -0.53125 -0.46875q-0.328125 -0.140625 -0.828125 -0.1875q-0.5 -0.046875 -1.015625 -0.109375l0.21875 -0.953125l5.796875 -0.359375l0.15625 0.234375l-2.375 10.390625l0.0625 0q1.40625 -1.25 2.46875 -1.71875q1.078125 -0.484375 2.09375 -0.484375q2.375 0 3.734375 1.625q1.359375 1.609375 1.359375 4.34375zm-3.21875 0.078125q0 -0.828125 -0.15625 -1.65625q-0.140625 -0.84375 -0.484375 -1.40625q-0.359375 -0.59375 -0.984375 -0.9375q-0.625 -0.34375 -1.546875 -0.34375q-0.546875 0 -1.03125 0.1875q-0.484375 0.1875 -1.0 0.5q-0.453125 0.28125 -0.890625 0.6875q-0.421875 0.390625 -0.78125 0.703125l-2.078125 9.265625q0.046875 0.3125 0.28125 0.6875q0.234375 0.375 0.59375 0.65625q0.4375 0.359375 0.984375 0.546875q0.546875 0.1875 1.203125 0.1875q1.234375 0 2.3125 -0.71875q1.09375 -0.734375 1.875 -1.96875q0.859375 -1.34375 1.28125 -3.0q0.421875 -1.65625 0.421875 -3.390625zm13.6875 -14.234375l-4.359375 18.8125q-0.140625 0.59375 -0.265625 1.1875q-0.125 0.59375 -0.125 0.96875q0 0.890625 0.390625 1.21875q0.40625 0.328125 1.296875 0.328125q0.3125 0 0.921875 -0.078125q0.625 -0.078125 0.9375 -0.1875l-0.234375 1.0q-1.40625 0.5625 -2.171875 0.796875q-0.75 0.234375 -1.703125 0.234375q-1.25 0 -1.90625 -0.640625q-0.640625 -0.65625 -0.640625 -1.609375q0 -0.359375 0.0625 -0.75q0.078125 -0.390625 0.203125 -0.984375l3.796875 -16.453125q0.109375 -0.484375 0.140625 -0.671875q0.046875 -0.1875 0.046875 -0.46875q0 -0.5625 -0.1875 -0.859375q-0.1875 -0.3125 -0.53125 -0.46875q-0.328125 -0.140625 -0.828125 -0.1875q-0.5 -0.046875 -1.015625 -0.109375l0.21875 -0.953125l5.796875 -0.359375l0.15625 0.234375zm15.890625 14.328125q0 1.84375 -0.625 3.6875q-0.625 1.84375 -1.8125 3.234375q-1.203125 1.4375 -2.90625 2.3125q-1.6875 0.859375 -3.921875 0.859375q-2.59375 0 -4.21875 -1.671875q-1.609375 -1.671875 -1.609375 -4.5q0 -2.078125 0.6875 -3.875q0.6875 -1.796875 1.84375 -3.15625q1.171875 -1.359375 2.890625 -2.1875q1.734375 -0.84375 3.75 -0.84375q2.78125 0 4.34375 1.703125q1.578125 1.6875 1.578125 4.4375zm-3.1875 -0.59375q0 -2.21875 -0.796875 -3.328125q-0.78125 -1.109375 -2.265625 -1.109375q-1.296875 0 -2.453125 0.796875q-1.140625 0.796875 -1.96875 2.59375q-0.640625 1.359375 -0.9375 3.03125q-0.296875 1.65625 -0.296875 3.0625q0 2.234375 0.765625 3.390625q0.78125 1.140625 2.34375 1.140625q1.390625 0 2.46875 -0.875q1.078125 -0.875 1.75 -2.21875q0.671875 -1.3125 1.03125 -3.0q0.359375 -1.703125 0.359375 -3.484375zm33.640625 -11.953125l-1.234375 5.34375l-1.171875 0q-0.09375 -1.65625 -0.703125 -2.78125q-0.59375 -1.125 -1.609375 -1.28125q-0.46875 -0.0625 -1.140625 -0.09375q-0.671875 -0.03125 -1.515625 -0.03125l-3.5625 0l-2.046875 8.921875l2.5 0q1.15625 0 1.796875 -0.21875q0.640625 -0.234375 1.140625 -0.765625q0.46875 -0.46875 0.90625 -1.28125q0.4375 -0.828125 0.625 -1.390625l1.171875 0l-2.0 8.671875l-1.15625 0q0 -0.171875 0.015625 -0.40625q0.03125 -0.25 0.03125 -0.53125q0 -0.578125 -0.078125 -1.109375q-0.078125 -0.53125 -0.21875 -0.78125q-0.328125 -0.609375 -0.9375 -0.796875q-0.609375 -0.1875 -1.59375 -0.1875l-2.5 0l-1.546875 6.765625q-0.09375 0.375 -0.15625 0.8125q-0.0625 0.4375 -0.0625 0.6875q0 0.859375 0.609375 1.140625q0.625 0.28125 2.734375 0.28125q2.625 0 3.5625 -0.1875q0.9375 -0.1875 1.390625 -0.546875q0.890625 -0.71875 2.078125 -2.296875q1.203125 -1.578125 1.609375 -2.296875l1.125 0l-1.921875 6.53125l-18.40625 0l0.234375 -1.03125q0.484375 -0.03125 1.28125 -0.125q0.796875 -0.109375 1.078125 -0.21875q0.546875 -0.203125 0.828125 -0.609375q0.296875 -0.40625 0.40625 -0.953125l3.71875 -16.09375q0.03125 -0.125 0.046875 -0.28125q0.03125 -0.15625 0.03125 -0.296875q0 -0.3125 -0.140625 -0.5625q-0.125 -0.25 -0.46875 -0.421875q-0.375 -0.203125 -1.0625 -0.359375q-0.6875 -0.15625 -1.078125 -0.1875l0.234375 -1.03125l17.15625 0zm4.875 22.625q-2.3125 0 -3.859375 -0.8125q-1.53125 -0.828125 -1.53125 -2.15625q0 -0.625 0.453125 -1.171875q0.453125 -0.546875 1.109375 -0.546875q0.625 0 1.0 0.296875q0.390625 0.28125 0.609375 0.671875q0.234375 0.40625 0.40625 0.96875q0.1875 0.5625 0.3125 0.921875q0.234375 0.265625 0.640625 0.5q0.421875 0.21875 1.203125 0.21875q1.6875 0 2.546875 -0.84375q0.875 -0.84375 0.875 -2.28125q0 -1.0625 -0.8125 -1.6875q-0.8125 -0.640625 -2.421875 -1.171875q-0.578125 -0.1875 -1.359375 -0.5625q-0.78125 -0.390625 -1.25 -0.828125q-0.5625 -0.5 -0.90625 -1.1875q-0.34375 -0.6875 -0.34375 -1.625q0 -2.0 1.78125 -3.453125q1.796875 -1.46875 4.40625 -1.46875q0.609375 0 1.3125 0.0625q0.703125 0.0625 1.546875 0.34375q0.734375 0.25 1.25 0.75q0.515625 0.484375 0.515625 1.265625q0 0.640625 -0.4375 1.171875q-0.421875 0.515625 -1.125 0.515625q-0.578125 0 -0.953125 -0.25q-0.375 -0.25 -0.625 -0.671875q-0.25 -0.421875 -0.40625 -0.90625q-0.15625 -0.484375 -0.34375 -0.953125q-0.296875 -0.125 -0.53125 -0.171875q-0.234375 -0.046875 -0.625 -0.046875q-1.53125 0 -2.328125 0.828125q-0.78125 0.8125 -0.78125 1.9375q0 1.09375 0.703125 1.65625q0.71875 0.546875 2.359375 1.140625q2.125 0.765625 3.078125 1.75q0.96875 0.984375 0.96875 2.4375q0 2.375 -1.828125 3.875q-1.828125 1.484375 -4.609375 1.484375zm15.09375 -0.015625q-2.734375 0 -4.328125 -1.59375q-1.578125 -1.59375 -1.578125 -4.53125q0 -1.953125 0.59375 -3.734375q0.609375 -1.796875 1.6875 -3.1875q1.078125 -1.390625 2.71875 -2.265625q1.65625 -0.890625 3.671875 -0.890625q2.234375 0 3.390625 0.953125q1.171875 0.9375 1.171875 2.375q0 1.078125 -0.515625 1.890625q-0.5 0.8125 -1.515625 0.8125q-0.84375 0 -1.265625 -0.421875q-0.421875 -0.421875 -0.421875 -0.9375q0 -0.5 0.34375 -1.359375q0.34375 -0.875 0.546875 -1.40625q-0.171875 -0.421875 -0.765625 -0.609375q-0.59375 -0.203125 -1.234375 -0.203125q-2.125 0 -3.671875 2.484375q-1.53125 2.46875 -1.53125 6.0625q0 2.21875 0.984375 3.53125q1.0 1.296875 2.6875 1.296875q1.515625 0 2.6875 -0.8125q1.1875 -0.8125 2.265625 -2.296875l0.890625 0.65625q-1.078125 1.703125 -2.9375 2.953125q-1.84375 1.234375 -3.875 1.234375zm18.4375 -2.5l-0.109375 0q-0.34375 0.28125 -0.828125 0.71875q-0.46875 0.421875 -1.109375 0.8125q-0.609375 0.390625 -1.328125 0.671875q-0.71875 0.296875 -1.5625 0.296875q-2.265625 0 -3.5625 -1.625q-1.28125 -1.625 -1.28125 -4.4375q0 -1.9375 0.71875 -3.765625q0.71875 -1.828125 1.984375 -3.28125q1.203125 -1.390625 2.859375 -2.234375q1.65625 -0.859375 3.40625 -0.859375q1.109375 0 2.109375 0.296875q1.015625 0.296875 1.59375 0.671875l2.859375 -0.734375l0.1875 0.234375l-2.375 10.078125q-0.125 0.484375 -0.265625 1.1875q-0.125 0.6875 -0.125 1.015625q0 0.890625 0.375 1.203125q0.375 0.3125 1.265625 0.3125q0.296875 0 0.84375 -0.09375q0.546875 -0.09375 0.84375 -0.203125l-0.234375 1.0q-1.40625 0.5625 -2.09375 0.8125q-0.6875 0.25 -1.671875 0.25q-1.125 0 -1.78125 -0.65625q-0.65625 -0.65625 -0.71875 -1.671875zm2.234375 -9.875q0 -0.515625 -0.109375 -0.984375q-0.109375 -0.46875 -0.453125 -0.875q-0.3125 -0.390625 -0.859375 -0.625q-0.546875 -0.234375 -1.375 -0.234375q-1.140625 0 -2.21875 0.75q-1.078125 0.75 -1.9375 2.015625q-0.8125 1.1875 -1.328125 2.875q-0.515625 1.6875 -0.515625 3.421875q0 0.953125 0.109375 1.6875q0.109375 0.734375 0.421875 1.34375q0.296875 0.59375 0.859375 0.921875q0.5625 0.328125 1.421875 0.328125q0.875 0 1.828125 -0.484375q0.96875 -0.5 2.171875 -1.734375l1.984375 -8.40625zm14.59375 -12.015625l-4.359375 18.8125q-0.140625 0.59375 -0.265625 1.1875q-0.125 0.59375 -0.125 0.96875q0 0.890625 0.390625 1.21875q0.40625 0.328125 1.296875 0.328125q0.3125 0 0.921875 -0.078125q0.625 -0.078125 0.9375 -0.1875l-0.234375 1.0q-1.40625 0.5625 -2.171875 0.796875q-0.75 0.234375 -1.703125 0.234375q-1.25 0 -1.90625 -0.640625q-0.640625 -0.65625 -0.640625 -1.609375q0 -0.359375 0.0625 -0.75q0.078125 -0.390625 0.203125 -0.984375l3.796875 -16.453125q0.109375 -0.484375 0.140625 -0.671875q0.046875 -0.1875 0.046875 -0.46875q0 -0.5625 -0.1875 -0.859375q-0.1875 -0.3125 -0.53125 -0.46875q-0.328125 -0.140625 -0.828125 -0.1875q-0.5 -0.046875 -1.015625 -0.109375l0.21875 -0.953125l5.796875 -0.359375l0.15625 0.234375zm10.625 21.890625l-0.109375 0q-0.34375 0.28125 -0.828125 0.71875q-0.46875 0.421875 -1.109375 0.8125q-0.609375 0.390625 -1.328125 0.671875q-0.71875 0.296875 -1.5625 0.296875q-2.265625 0 -3.5625 -1.625q-1.28125 -1.625 -1.28125 -4.4375q0 -1.9375 0.71875 -3.765625q0.71875 -1.828125 1.984375 -3.28125q1.203125 -1.390625 2.859375 -2.234375q1.65625 -0.859375 3.40625 -0.859375q1.109375 0 2.109375 0.296875q1.015625 0.296875 1.59375 0.671875l2.859375 -0.734375l0.1875 0.234375l-2.375 10.078125q-0.125 0.484375 -0.265625 1.1875q-0.125 0.6875 -0.125 1.015625q0 0.890625 0.375 1.203125q0.375 0.3125 1.265625 0.3125q0.296875 0 0.84375 -0.09375q0.546875 -0.09375 0.84375 -0.203125l-0.234375 1.0q-1.40625 0.5625 -2.09375 0.8125q-0.6875 0.25 -1.671875 0.25q-1.125 0 -1.78125 -0.65625q-0.65625 -0.65625 -0.71875 -1.671875zm2.234375 -9.875q0 -0.515625 -0.109375 -0.984375q-0.109375 -0.46875 -0.453125 -0.875q-0.3125 -0.390625 -0.859375 -0.625q-0.546875 -0.234375 -1.375 -0.234375q-1.140625 0 -2.21875 0.75q-1.078125 0.75 -1.9375 2.015625q-0.8125 1.1875 -1.328125 2.875q-0.515625 1.6875 -0.515625 3.421875q0 0.953125 0.109375 1.6875q0.109375 0.734375 0.421875 1.34375q0.296875 0.59375 0.859375 0.921875q0.5625 0.328125 1.421875 0.328125q0.875 0 1.828125 -0.484375q0.96875 -0.5 2.171875 -1.734375l1.984375 -8.40625zm16.234375 9.796875l-0.109375 0q-0.34375 0.296875 -0.890625 0.78125q-0.546875 0.46875 -1.140625 0.828125q-0.75 0.46875 -1.390625 0.71875q-0.625 0.25 -1.546875 0.25q-2.265625 0 -3.5625 -1.625q-1.28125 -1.640625 -1.28125 -4.453125q0 -1.96875 0.6875 -3.796875q0.703125 -1.828125 1.90625 -3.25q1.171875 -1.375 2.8125 -2.21875q1.65625 -0.859375 3.453125 -0.859375q1.078125 0 2.140625 0.28125q1.0625 0.28125 1.75 0.6875l1.21875 -5.3125q0.09375 -0.421875 0.125 -0.65625q0.046875 -0.234375 0.046875 -0.515625q0 -0.5625 -0.234375 -0.859375q-0.21875 -0.296875 -0.625 -0.4375q-0.375 -0.140625 -1.03125 -0.1875q-0.65625 -0.046875 -1.1875 -0.109375l0.21875 -0.953125l6.328125 -0.359375l0.15625 0.234375l-4.328125 18.734375q-0.125 0.515625 -0.265625 1.1875q-0.125 0.65625 -0.125 1.0q0 0.890625 0.375 1.21875q0.375 0.3125 1.265625 0.3125q0.296875 0 0.84375 -0.09375q0.546875 -0.09375 0.84375 -0.203125l-0.234375 1.0q-1.3125 0.59375 -2.171875 0.828125q-0.859375 0.234375 -1.59375 0.234375q-1.125 0 -1.796875 -0.578125q-0.65625 -0.59375 -0.65625 -1.828125zm2.203125 -9.953125q-0.03125 -0.453125 -0.234375 -0.875q-0.203125 -0.4375 -0.515625 -0.78125q-0.359375 -0.390625 -0.9375 -0.640625q-0.5625 -0.265625 -1.34375 -0.265625q-1.203125 0 -2.28125 0.75q-1.0625 0.75 -1.875 2.0q-0.78125 1.203125 -1.25 2.90625q-0.46875 1.6875 -0.46875 3.390625q0 0.953125 0.109375 1.6875q0.109375 0.734375 0.421875 1.359375q0.296875 0.578125 0.84375 0.921875q0.546875 0.328125 1.453125 0.328125q0.859375 0 1.859375 -0.515625q1.015625 -0.515625 2.25 -1.796875l1.96875 -8.46875zm16.0625 10.03125l-0.109375 0q-0.34375 0.28125 -0.828125 0.71875q-0.46875 0.421875 -1.109375 0.8125q-0.609375 0.390625 -1.328125 0.671875q-0.71875 0.296875 -1.5625 0.296875q-2.265625 0 -3.5625 -1.625q-1.28125 -1.625 -1.28125 -4.4375q0 -1.9375 0.71875 -3.765625q0.71875 -1.828125 1.984375 -3.28125q1.203125 -1.390625 2.859375 -2.234375q1.65625 -0.859375 3.40625 -0.859375q1.109375 0 2.109375 0.296875q1.015625 0.296875 1.59375 0.671875l2.859375 -0.734375l0.1875 0.234375l-2.375 10.078125q-0.125 0.484375 -0.265625 1.1875q-0.125 0.6875 -0.125 1.015625q0 0.890625 0.375 1.203125q0.375 0.3125 1.265625 0.3125q0.296875 0 0.84375 -0.09375q0.546875 -0.09375 0.84375 -0.203125l-0.234375 1.0q-1.40625 0.5625 -2.09375 0.8125q-0.6875 0.25 -1.671875 0.25q-1.125 0 -1.78125 -0.65625q-0.65625 -0.65625 -0.71875 -1.671875zm2.234375 -9.875q0 -0.515625 -0.109375 -0.984375q-0.109375 -0.46875 -0.453125 -0.875q-0.3125 -0.390625 -0.859375 -0.625q-0.546875 -0.234375 -1.375 -0.234375q-1.140625 0 -2.21875 0.75q-1.078125 0.75 -1.9375 2.015625q-0.8125 1.1875 -1.328125 2.875q-0.515625 1.6875 -0.515625 3.421875q0 0.953125 0.109375 1.6875q0.109375 0.734375 0.421875 1.34375q0.296875 0.59375 0.859375 0.921875q0.5625 0.328125 1.421875 0.328125q0.875 0 1.828125 -0.484375q0.96875 -0.5 2.171875 -1.734375l1.984375 -8.40625zm23.359375 12.453125q-1.875 0 -3.484375 -0.59375q-1.609375 -0.59375 -2.8125 -1.75q-1.203125 -1.15625 -1.890625 -2.8125q-0.671875 -1.65625 -0.671875 -3.796875q0 -3.015625 1.046875 -5.59375q1.0625 -2.59375 2.890625 -4.53125q1.796875 -1.921875 4.25 -3.015625q2.453125 -1.109375 5.171875 -1.109375q2.15625 0 3.6875 0.5q1.546875 0.484375 2.421875 1.078125l0.875 -1.0625l1.25 0l-1.640625 7.75l-1.28125 0q-0.03125 -1.296875 -0.21875 -2.546875q-0.1875 -1.25 -0.78125 -2.25q-0.609375 -1.015625 -1.671875 -1.609375q-1.0625 -0.59375 -2.96875 -0.59375q-1.921875 0 -3.640625 1.0q-1.703125 0.984375 -3.0 2.78125q-1.265625 1.734375 -2.0 4.171875q-0.71875 2.4375 -0.71875 5.21875q0 3.46875 1.640625 5.46875q1.640625 2.0 4.53125 2.0q1.375 0 2.390625 -0.40625q1.015625 -0.40625 1.609375 -0.90625q0.21875 -0.640625 0.40625 -1.34375q0.203125 -0.71875 0.4375 -1.75l0.296875 -1.34375q0.03125 -0.171875 0.0625 -0.40625q0.046875 -0.234375 0.046875 -0.4375q0 -0.390625 -0.109375 -0.640625q-0.09375 -0.25 -0.484375 -0.421875q-0.453125 -0.234375 -1.328125 -0.34375q-0.859375 -0.125 -1.328125 -0.15625l0.234375 -1.0625l9.734375 0l-0.234375 1.0625q-0.40625 0.046875 -1.0625 0.15625q-0.640625 0.09375 -1.078125 0.28125q-0.5625 0.25 -0.84375 0.671875q-0.265625 0.421875 -0.40625 1.0l-0.40625 1.796875q-0.359375 1.484375 -0.5 2.21875q-0.140625 0.734375 -0.25 1.390625q-1.03125 0.421875 -1.84375 0.734375q-0.796875 0.3125 -2.0 0.609375q-1.09375 0.28125 -2.109375 0.4375q-1.0 0.15625 -2.21875 0.15625zm28.921875 -10.140625q0 1.84375 -0.625 3.6875q-0.625 1.84375 -1.8125 3.234375q-1.203125 1.4375 -2.90625 2.3125q-1.6875 0.859375 -3.921875 0.859375q-2.59375 0 -4.21875 -1.671875q-1.609375 -1.671875 -1.609375 -4.5q0 -2.078125 0.6875 -3.875q0.6875 -1.796875 1.84375 -3.15625q1.171875 -1.359375 2.890625 -2.1875q1.734375 -0.84375 3.75 -0.84375q2.78125 0 4.34375 1.703125q1.578125 1.6875 1.578125 4.4375zm-3.1875 -0.59375q0 -2.21875 -0.796875 -3.328125q-0.78125 -1.109375 -2.265625 -1.109375q-1.296875 0 -2.453125 0.796875q-1.140625 0.796875 -1.96875 2.59375q-0.640625 1.359375 -0.9375 3.03125q-0.296875 1.65625 -0.296875 3.0625q0 2.234375 0.765625 3.390625q0.78125 1.140625 2.34375 1.140625q1.390625 0 2.46875 -0.875q1.078125 -0.875 1.75 -2.21875q0.671875 -1.3125 1.03125 -3.0q0.359375 -1.703125 0.359375 -3.484375zm1.171875 -12.6875q0 0.625 -0.296875 1.015625q-0.296875 0.375 -0.90625 0.84375q-0.734375 0.5625 -1.90625 1.390625q-1.15625 0.828125 -3.140625 2.3125l-0.5625 -0.5q1.546875 -2.0625 2.140625 -2.921875q0.609375 -0.859375 1.296875 -1.890625q0.546875 -0.84375 1.046875 -1.109375q0.515625 -0.265625 1.109375 -0.265625q0.515625 0 0.859375 0.34375q0.359375 0.34375 0.359375 0.78125zm30.296875 21.140625l-0.234375 1.0q-1.4375 0.578125 -2.296875 0.796875q-0.859375 0.234375 -1.46875 0.234375q-1.25 0 -1.875 -0.640625q-0.625 -0.65625 -0.625 -1.609375q0 -0.34375 0.0625 -0.75q0.0625 -0.421875 0.203125 -0.984375l1.53125 -5.828125q0.171875 -0.671875 0.265625 -1.21875q0.109375 -0.546875 0.109375 -0.875q0 -1.046875 -0.453125 -1.65625q-0.453125 -0.609375 -1.4375 -0.609375q-1.046875 0 -2.0625 0.5q-1.0 0.484375 -2.265625 1.828125l-2.71875 11.578125l-2.90625 0l2.453125 -10.4375q0.078125 -0.34375 0.140625 -0.71875q0.078125 -0.390625 0.078125 -0.578125q0 -1.015625 -0.515625 -1.59375q-0.5 -0.578125 -1.484375 -0.578125q-0.890625 0 -1.96875 0.453125q-1.078125 0.4375 -2.5 1.984375l-2.640625 11.46875l-2.90625 0l2.328125 -10.125q0.125 -0.546875 0.234375 -1.171875q0.125 -0.625 0.125 -1.0625q0 -0.90625 -0.296875 -1.1875q-0.296875 -0.296875 -1.15625 -0.296875q-0.34375 0 -0.890625 0.125q-0.53125 0.125 -0.828125 0.203125l0.234375 -1.0q1.21875 -0.546875 2.15625 -0.8125q0.9375 -0.265625 1.609375 -0.265625q1.25 0 1.765625 0.6875q0.53125 0.671875 0.5625 1.84375l0.09375 0q1.84375 -1.453125 3.03125 -2.078125q1.1875 -0.625 2.828125 -0.625q1.390625 0 2.25 0.8125q0.875 0.796875 0.984375 2.015625l0.0625 0q1.671875 -1.390625 2.96875 -2.109375q1.3125 -0.71875 3.046875 -0.71875q1.5 0 2.296875 0.875q0.8125 0.859375 0.8125 2.265625q0 0.28125 -0.09375 1.0q-0.078125 0.71875 -0.265625 1.421875l-1.3125 5.015625q-0.140625 0.5 -0.265625 1.15625q-0.125 0.640625 -0.125 1.0q0 0.890625 0.375 1.21875q0.375 0.3125 1.265625 0.3125q0.296875 0 0.859375 -0.078125q0.5625 -0.078125 0.859375 -0.1875zm15.375 -10.75q0 1.65625 -1.046875 2.84375q-1.03125 1.1875 -3.015625 1.890625q-1.453125 0.53125 -2.9375 0.859375q-1.484375 0.328125 -3.28125 0.546875q0 2.46875 0.90625 3.78125q0.921875 1.296875 2.6875 1.296875q1.5625 0 2.75 -0.78125q1.203125 -0.78125 2.359375 -2.328125l0.890625 0.65625q-1.25 1.90625 -3.125 3.046875q-1.875 1.140625 -3.890625 1.140625q-2.765625 0 -4.234375 -1.546875q-1.453125 -1.546875 -1.453125 -4.390625q0 -1.96875 0.609375 -3.75q0.625 -1.796875 1.8125 -3.28125q1.15625 -1.453125 2.828125 -2.34375q1.6875 -0.890625 3.71875 -0.890625q2.25 0 3.328125 0.921875q1.09375 0.90625 1.09375 2.328125zm-2.875 -0.390625q0 -0.609375 -0.171875 -0.953125q-0.171875 -0.359375 -0.4375 -0.53125q-0.28125 -0.1875 -0.59375 -0.234375q-0.3125 -0.046875 -0.640625 -0.046875q-1.875 0 -3.46875 2.0625q-1.578125 2.0625 -2.0 5.140625q1.09375 -0.15625 2.46875 -0.4375q1.375 -0.296875 2.28125 -0.765625q1.296875 -0.671875 1.921875 -1.71875q0.640625 -1.0625 0.640625 -2.515625zm18.09375 -2.390625l-0.203125 0.921875l-11.15625 13.140625q0.5625 0.015625 1.21875 0.03125q0.65625 0 1.4375 0q0.609375 0 1.28125 -0.015625q0.671875 -0.03125 1.703125 -0.078125q0.625 -0.03125 1.015625 -0.4375q0.40625 -0.40625 0.671875 -0.90625q0.234375 -0.40625 0.671875 -1.265625q0.4375 -0.875 0.71875 -1.53125l0.9375 0l-1.0625 5.4375l-12.25 0l0.25 -1.09375l10.984375 -12.96875l-2.046875 0q-1.359375 0 -2.140625 0.046875q-0.78125 0.046875 -1.46875 0.3125q-0.515625 0.1875 -1.0625 1.078125q-0.546875 0.890625 -1.03125 2.0625l-0.953125 0l0.921875 -4.734375l11.5625 0z" fill-rule="nonzero"></path></g></svg>

